<svg width="350" height="350" viewBox="0 0 350 350" fill="none" xmlns="http://www.w3.org/2000/svg">
<path d="M145.757 96.1135L34.2927 292.523H321.671L215.936 96.1135H145.757Z" fill="#FFE18B"/>
<path d="M239.264 182.473C240.797 179.365 241.604 175.949 241.623 172.483C241.642 169.017 240.873 165.593 239.373 162.468C237.874 159.344 235.684 156.601 232.968 154.447C230.253 152.294 227.083 150.786 223.699 150.038C222.242 149.719 220.911 148.975 219.877 147.9V147.882C217.896 145.81 217.557 143.952 214.746 138.32C214.445 137.711 214.193 137.221 214.046 136.941L190.635 146.02L196.98 165.421C195.675 169.517 195.551 173.898 196.624 178.062C197.696 182.225 199.92 186.002 203.042 188.959C206.163 191.915 210.055 193.932 214.27 194.777C218.486 195.622 222.854 195.261 226.874 193.736C227.066 195.657 227.788 197.487 228.959 199.022C230.131 200.557 231.706 201.736 233.508 202.428C235.311 203.121 237.27 203.298 239.168 202.942C241.066 202.586 242.827 201.71 244.256 200.411C245.685 199.112 246.725 197.442 247.26 195.587C247.795 193.731 247.804 191.764 247.286 189.904C246.768 188.043 245.744 186.364 244.328 185.051C242.911 183.739 241.158 182.847 239.264 182.473Z" fill="#262626"/>
<path d="M170.38 194.285C176.689 194.285 181.804 189.17 181.804 182.861C181.804 176.552 176.689 171.437 170.38 171.437C164.07 171.437 158.956 176.552 158.956 182.861C158.956 189.17 164.07 194.285 170.38 194.285Z" fill="#262626"/>
<path d="M207.123 152.688C207.133 150.678 206.352 148.745 204.948 147.308C203.544 145.87 201.631 145.043 199.622 145.005L199.15 139.86C199.011 138.228 198.551 136.64 197.798 135.186C197.044 133.733 196.011 132.442 194.758 131.388C193.504 130.334 192.055 129.538 190.493 129.045C188.932 128.553 187.288 128.373 185.657 128.517L166.705 130.284C164.223 130.53 161.941 131.75 160.358 133.676C158.775 135.603 158.02 138.078 158.259 140.56L160.359 163.709C160.525 165.653 161.072 167.545 161.97 169.277C162.868 171.009 164.099 172.546 165.593 173.802C167.086 175.057 168.812 176.005 170.673 176.592C172.533 177.179 174.491 177.393 176.435 177.223L177.313 177.138L178.5 189.97L203.535 187.638L202.135 172.442H202.114L201.001 160.223C202.734 159.866 204.29 158.921 205.406 157.547C206.522 156.174 207.128 154.457 207.123 152.688Z" fill="white"/>
<path d="M199.437 156.349C198.849 156.349 198.275 156.174 197.786 155.848C197.297 155.521 196.916 155.057 196.692 154.514C196.467 153.971 196.408 153.374 196.522 152.797C196.637 152.221 196.92 151.691 197.336 151.276C197.751 150.86 198.281 150.577 198.857 150.463C199.434 150.348 200.031 150.407 200.574 150.632C201.117 150.857 201.581 151.237 201.908 151.726C202.234 152.215 202.408 152.789 202.408 153.377C202.407 154.165 202.094 154.92 201.537 155.477C200.98 156.034 200.225 156.348 199.437 156.349ZM199.437 151.799C199.126 151.799 198.822 151.891 198.564 152.063C198.305 152.236 198.104 152.481 197.985 152.769C197.866 153.056 197.835 153.372 197.896 153.677C197.956 153.981 198.106 154.261 198.326 154.481C198.545 154.701 198.825 154.851 199.13 154.911C199.435 154.972 199.751 154.941 200.038 154.822C200.325 154.703 200.571 154.502 200.743 154.243C200.916 153.985 201.008 153.681 201.008 153.37C201.006 152.955 200.839 152.557 200.545 152.264C200.25 151.971 199.852 151.806 199.437 151.806V151.799Z" fill="#262626"/>
<path d="M177.261 177.159L192.168 175.308C192.264 175.296 192.361 175.318 192.442 175.371C192.522 175.425 192.582 175.505 192.609 175.597C192.636 175.69 192.629 175.79 192.589 175.878C192.549 175.966 192.479 176.037 192.392 176.078L177.8 183.05L177.261 177.159Z" fill="#262626"/>
<path d="M197.246 154.669C197.081 154.672 196.921 154.617 196.793 154.514C196.665 154.411 196.578 154.266 196.546 154.105C196.385 153.311 196.435 152.489 196.692 151.72C196.949 150.952 197.403 150.264 198.009 149.727C198.594 149.233 199.289 148.886 200.035 148.716C200.782 148.547 201.558 148.558 202.3 148.75C202.478 148.8 202.63 148.918 202.721 149.08C202.812 149.241 202.836 149.432 202.786 149.611C202.736 149.79 202.618 149.941 202.456 150.032C202.295 150.124 202.104 150.147 201.925 150.098C201.41 149.968 200.872 149.961 200.354 150.078C199.836 150.195 199.353 150.432 198.943 150.77C198.522 151.144 198.206 151.623 198.028 152.158C197.85 152.693 197.815 153.265 197.928 153.818C197.947 153.908 197.947 154.001 197.929 154.092C197.911 154.182 197.876 154.268 197.825 154.345C197.774 154.422 197.708 154.488 197.632 154.539C197.555 154.59 197.469 154.626 197.379 154.644C197.335 154.655 197.291 154.664 197.246 154.669Z" fill="#262626"/>
<path d="M162.725 155.012C163.543 155.012 164.206 154.349 164.206 153.531C164.206 152.713 163.543 152.051 162.725 152.051C161.908 152.051 161.245 152.713 161.245 153.531C161.245 154.349 161.908 155.012 162.725 155.012Z" fill="#262626"/>
<path d="M178.521 153.181C179.338 153.181 180.001 152.518 180.001 151.701C180.001 150.883 179.338 150.22 178.521 150.22C177.703 150.22 177.04 150.883 177.04 151.701C177.04 152.518 177.703 153.181 178.521 153.181Z" fill="#262626"/>
<path d="M169.141 159.435C169.086 159.436 169.031 159.429 168.977 159.414C167.86 159.145 166.705 158.739 166.625 157.804C166.617 157.45 166.749 157.107 166.992 156.849C167.062 156.758 167.143 156.653 167.23 156.516C167.557 155.992 167.723 155.384 167.706 154.766L167.675 148.312C167.675 148.127 167.749 147.949 167.88 147.818C168.011 147.686 168.189 147.612 168.375 147.612C168.561 147.612 168.739 147.686 168.87 147.818C169.001 147.949 169.075 148.127 169.075 148.312L169.106 154.766C169.116 155.644 168.873 156.505 168.406 157.248C168.294 157.419 168.203 157.545 168.123 157.65C168.494 157.831 168.887 157.964 169.292 158.046C169.46 158.084 169.609 158.184 169.709 158.325C169.808 158.466 169.852 158.64 169.832 158.811C169.811 158.983 169.728 159.141 169.598 159.255C169.468 159.369 169.3 159.431 169.127 159.428L169.141 159.435Z" fill="#262626"/>
<path d="M171.549 165.599C170.603 165.586 169.671 165.366 168.819 164.955C168.654 164.87 168.529 164.723 168.472 164.546C168.416 164.369 168.432 164.177 168.516 164.012C168.601 163.847 168.748 163.722 168.925 163.665C169.102 163.608 169.294 163.624 169.46 163.709C169.481 163.709 171.094 164.528 172.55 164.059C172.948 163.915 173.311 163.691 173.619 163.402C173.927 163.112 174.173 162.763 174.342 162.376C174.38 162.288 174.435 162.209 174.505 162.144C174.574 162.079 174.656 162.028 174.745 161.996C174.835 161.963 174.93 161.949 175.025 161.955C175.12 161.96 175.213 161.985 175.298 162.028C175.384 162.07 175.459 162.13 175.52 162.203C175.582 162.276 175.628 162.36 175.655 162.452C175.682 162.543 175.691 162.639 175.68 162.733C175.669 162.828 175.639 162.919 175.592 163.002C175.343 163.558 174.983 164.058 174.533 164.469C174.083 164.88 173.554 165.195 172.977 165.393C172.515 165.536 172.033 165.606 171.549 165.599Z" fill="#262626"/>
<path d="M202.832 180.298L177.502 182.635L178.577 194.293L203.907 191.956L202.832 180.298Z" fill="#F9B800"/>
<path d="M167.065 131.173C169.291 130.998 171.415 132.828 172.665 134.456C174.765 137.2 175.65 140.546 177.267 143.556C180.477 149.506 188.292 150.251 193.987 147.773L215.442 139.769C214.91 138.057 212.159 128.38 202.32 123.697C197.768 121.568 192.691 120.823 187.718 121.555L169.662 122.5C167.56 122.594 165.515 123.211 163.712 124.295C160.446 126.308 156.876 130.595 158.14 139.65C158.428 137.424 159.474 135.365 161.102 133.82C162.73 132.274 164.841 131.337 167.079 131.166L167.065 131.173Z" fill="#262626"/>
<path d="M159.674 191.191C159.674 191.191 151.554 192.328 146.22 208.628C144.9 212.66 143.5 216.65 141.883 220.584L130.939 245.413L138.908 279.674L156.776 268.054L150.808 252.623C147.455 244.573 146.468 235.501 148.999 227.164L159.674 191.191Z" fill="white"/>
<path d="M229.677 257.418L155.313 266.129C151.977 257.859 151.337 257.099 148.005 248.836C145.279 242.082 144.924 234.603 147 227.622L157.406 192.745C157.634 191.97 158.101 191.287 158.739 190.792C159.377 190.297 160.155 190.016 160.962 189.987L226.566 187.491C228.165 216.209 228.095 228.7 229.677 257.418Z" fill="#F9B800"/>
<path d="M149.321 165.043C151.645 166.373 153.006 168.802 154.221 171.091C155.627 173.72 156.858 176.44 157.906 179.232C160.004 184.801 161.352 190.625 161.914 196.55C162.466 202.347 162.188 208.194 161.088 213.913C160.043 219.282 158.261 224.481 155.792 229.362C153.324 234.259 150.147 238.766 146.363 242.736C145.896 243.233 145.411 243.72 144.907 244.199C143.934 245.14 145.418 246.624 146.391 245.683C150.47 241.717 153.936 237.166 156.674 232.18C159.429 227.195 161.474 221.85 162.75 216.3C164.076 210.463 164.558 204.466 164.182 198.492C163.796 192.315 162.576 186.218 160.552 180.369C159.53 177.402 158.313 174.506 156.909 171.7C155.645 169.173 154.294 166.467 152.17 164.546C151.627 164.049 151.032 163.614 150.395 163.247C149.219 162.575 148.162 164.388 149.345 165.06L149.321 165.043Z" fill="white"/>
<path d="M202.052 286.65C201.79 278.7 203.332 270.794 206.563 263.526C209.771 256.22 214.561 249.718 220.588 244.489C223.738 241.784 227.35 239.082 231.501 238.259C233.341 237.885 235.249 238.038 237.006 238.7C237.726 238.996 238.415 239.364 239.061 239.799C239.711 240.245 240.315 240.755 240.863 241.322C243.282 243.772 244.902 247.062 246.057 250.282C247.597 254.594 248.612 259.14 249.431 263.638C251.169 273.183 251.61 282.919 250.744 292.583C250.636 293.794 250.508 295.002 250.359 296.209C250.289 296.772 250.891 297.259 251.409 297.259C251.685 297.252 251.949 297.14 252.144 296.944C252.34 296.749 252.452 296.485 252.459 296.209C253.679 286.171 253.51 276.013 251.955 266.021C251.221 261.177 250.144 256.391 248.731 251.699C247.622 248.052 246.089 244.458 243.737 241.434C241.437 238.469 238.249 236.317 234.444 235.988C229.828 235.592 225.467 238.063 221.907 240.741C215.256 245.777 209.838 252.26 206.063 259.7C202.248 267.124 200.152 275.311 199.931 283.654C199.906 284.652 199.931 285.646 199.952 286.643C199.997 287.991 202.097 287.998 202.052 286.643V286.65Z" fill="white"/>
<path d="M163.587 268.853C162.61 263.169 162.631 257.358 163.65 251.682C164.577 246.512 166.247 241.381 168.998 236.884C170.234 234.832 171.749 232.961 173.499 231.326C174.346 230.547 175.259 229.845 176.229 229.226C177.134 228.64 178.092 228.142 179.092 227.738C181.075 226.962 183.193 226.589 185.322 226.639C187.338 226.663 189.326 227.113 191.156 227.959C193.057 228.842 194.659 230.258 195.769 232.036C197.068 234.154 197.582 236.747 196.819 239.078C196.482 240.096 195.909 241.02 195.146 241.773C194.404 242.501 193.372 243.173 192.28 243.268C191.824 243.3 191.368 243.226 190.947 243.05C190.525 242.875 190.151 242.603 189.854 242.256C189.154 241.496 188.64 240.583 188.356 239.589C186.788 234.427 189.018 228.785 191.674 224.396C194.278 220.167 197.624 216.444 201.551 213.406C205.649 210.233 210.218 207.72 215.093 205.958C220.483 204.015 226.097 202.761 231.802 202.223C233.202 202.083 234.602 201.978 236.002 201.908C236.278 201.901 236.541 201.788 236.736 201.593C236.932 201.397 237.045 201.134 237.052 200.858C237.052 200.58 236.941 200.312 236.744 200.116C236.547 199.919 236.28 199.808 236.002 199.808C229.874 200.074 223.8 201.078 217.914 202.801C212.4 204.421 207.177 206.901 202.437 210.151C197.989 213.214 194.129 217.053 191.041 221.484C187.838 226.153 185.185 231.963 185.861 237.759C186.162 240.352 187.103 243.068 189.361 244.584C191.776 246.194 194.814 245.081 196.693 243.184C197.632 242.207 198.345 241.036 198.778 239.753C199.212 238.469 199.357 237.106 199.203 235.76C198.872 232.999 197.591 230.439 195.58 228.519C192.199 225.267 187.243 224.112 182.676 224.707C177.601 225.369 173.201 228.169 169.922 232.036C166.422 236.177 164.147 241.241 162.687 246.435C161.008 252.418 160.415 258.653 160.937 264.845C161.067 266.382 161.287 267.918 161.532 269.441C161.607 269.709 161.784 269.936 162.027 270.074C162.269 270.211 162.555 270.246 162.824 270.172C163.089 270.094 163.315 269.915 163.452 269.675C163.589 269.434 163.627 269.149 163.559 268.881L163.587 268.853Z" fill="white"/>
<path d="M268.39 254.184H268.429L263.105 241.794L251.905 215.701C250.293 211.949 248.68 208.195 247.068 204.438C244.87 199.325 243.078 193.791 238.444 190.305C232.494 185.836 223.499 184.915 217.367 189.532C212.149 193.459 210.717 200.592 210.812 206.801C210.938 213.839 213.262 220.685 216.321 226.95C219.471 233.404 222.061 240.124 224.955 246.701L229.68 257.432L158.809 265.72C156.457 265.993 154.162 266.627 152.005 267.599C149.03 268.946 146.003 270.392 142.926 271.939C141.122 272.845 139.36 273.757 137.641 274.676L142.089 292.526H243.183C263.06 292.526 276.192 272.142 268.39 254.184Z" fill="white"/>
<path d="M298.389 238.91H274.589C273.464 238.909 272.386 238.462 271.59 237.666C270.795 236.871 270.348 235.793 270.347 234.668V210.847C270.348 209.722 270.795 208.644 271.59 207.848C272.386 207.053 273.464 206.606 274.589 206.605H298.389C299.514 206.606 300.592 207.053 301.387 207.848C302.183 208.644 302.63 209.722 302.631 210.847V234.668C302.63 235.793 302.183 236.871 301.387 237.666C300.592 238.462 299.514 238.909 298.389 238.91ZM274.589 208.005C273.835 208.006 273.113 208.306 272.58 208.838C272.048 209.371 271.748 210.094 271.747 210.847V234.668C271.748 235.421 272.048 236.144 272.58 236.677C273.113 237.209 273.835 237.509 274.589 237.51H298.389C299.142 237.509 299.865 237.209 300.398 236.677C300.93 236.144 301.23 235.421 301.231 234.668V210.847C301.23 210.094 300.93 209.371 300.398 208.838C299.865 208.306 299.142 208.006 298.389 208.005H274.589Z" fill="#262626"/>
<path d="M281.172 220.15C280.449 220.15 279.743 219.936 279.142 219.534C278.541 219.133 278.073 218.562 277.796 217.894C277.52 217.227 277.447 216.492 277.588 215.783C277.729 215.074 278.077 214.423 278.588 213.912C279.099 213.401 279.75 213.053 280.459 212.912C281.168 212.771 281.903 212.844 282.57 213.12C283.238 213.397 283.809 213.865 284.21 214.466C284.612 215.067 284.826 215.773 284.826 216.496C284.825 217.465 284.44 218.394 283.755 219.079C283.07 219.764 282.141 220.149 281.172 220.15ZM281.172 214.242C280.726 214.242 280.29 214.374 279.92 214.622C279.549 214.87 279.26 215.222 279.09 215.633C278.919 216.045 278.874 216.499 278.961 216.936C279.048 217.373 279.263 217.775 279.578 218.09C279.893 218.405 280.295 218.62 280.732 218.707C281.17 218.794 281.623 218.749 282.035 218.578C282.446 218.408 282.799 218.119 283.046 217.748C283.294 217.378 283.426 216.942 283.426 216.496C283.422 215.9 283.183 215.33 282.761 214.91C282.339 214.49 281.768 214.253 281.172 214.253V214.242Z" fill="#262626"/>
<path d="M291.788 231.486C291.064 231.486 290.357 231.272 289.756 230.869C289.155 230.467 288.686 229.895 288.41 229.227C288.134 228.558 288.063 227.822 288.205 227.113C288.348 226.404 288.697 225.753 289.21 225.243C289.723 224.732 290.376 224.386 291.086 224.247C291.796 224.108 292.531 224.182 293.198 224.462C293.866 224.741 294.435 225.212 294.834 225.815C295.234 226.418 295.445 227.127 295.442 227.85C295.436 228.816 295.049 229.74 294.364 230.421C293.68 231.103 292.754 231.486 291.788 231.486ZM291.788 225.578C291.342 225.578 290.906 225.711 290.535 225.958C290.165 226.206 289.876 226.558 289.705 226.97C289.535 227.382 289.49 227.835 289.577 228.272C289.664 228.709 289.879 229.111 290.194 229.426C290.509 229.742 290.911 229.956 291.348 230.043C291.785 230.13 292.238 230.085 292.65 229.915C293.062 229.744 293.414 229.455 293.662 229.085C293.91 228.714 294.042 228.278 294.042 227.832C294.041 227.235 293.803 226.662 293.381 226.24C292.958 225.817 292.385 225.579 291.788 225.578Z" fill="#262626"/>
<path d="M279.499 233.657C279.375 233.655 279.254 233.62 279.149 233.555C278.991 233.459 278.877 233.304 278.832 233.125C278.788 232.945 278.816 232.755 278.911 232.596L291.2 212.195C291.247 212.116 291.31 212.047 291.384 211.992C291.458 211.938 291.542 211.898 291.632 211.876C291.721 211.854 291.814 211.85 291.905 211.864C291.996 211.877 292.083 211.909 292.162 211.957C292.241 212.004 292.31 212.067 292.364 212.141C292.419 212.215 292.458 212.299 292.481 212.389C292.503 212.478 292.507 212.571 292.493 212.662C292.479 212.753 292.448 212.84 292.4 212.919L280.112 233.317C280.048 233.422 279.959 233.509 279.851 233.569C279.743 233.629 279.622 233.659 279.499 233.657Z" fill="#262626"/>
<path d="M336.35 188.797H260.718C259.048 188.797 257.445 188.133 256.264 186.952C255.082 185.77 254.418 184.168 254.418 182.497V123.417C254.418 121.746 255.082 120.144 256.264 118.962C257.445 117.781 259.048 117.117 260.718 117.117H336.35C338.021 117.117 339.623 117.781 340.805 118.962C341.986 120.144 342.65 121.746 342.65 123.417V182.504C342.648 184.174 341.984 185.774 340.802 186.954C339.621 188.134 338.02 188.797 336.35 188.797ZM260.718 118.524C259.419 118.524 258.173 119.04 257.254 119.959C256.335 120.878 255.818 122.124 255.818 123.424V182.504C255.818 183.804 256.335 185.05 257.254 185.969C258.173 186.888 259.419 187.404 260.718 187.404H336.35C337.65 187.404 338.896 186.888 339.815 185.969C340.734 185.05 341.25 183.804 341.25 182.504V123.417C341.25 122.117 340.734 120.871 339.815 119.952C338.896 119.033 337.65 118.517 336.35 118.517L260.718 118.524Z" fill="#262626"/>
<path d="M294.98 130.959H267.96C266.212 130.959 264.796 132.376 264.796 134.123V175.343C264.796 177.09 266.212 178.507 267.96 178.507H294.98C296.727 178.507 298.144 177.09 298.144 175.343V134.123C298.144 132.376 296.727 130.959 294.98 130.959Z" fill="#F9B800"/>
<path d="M317.132 132.43H310.093C309.123 132.43 308.336 133.216 308.336 134.187V141.225C308.336 142.195 309.123 142.982 310.093 142.982H317.132C318.102 142.982 318.889 142.195 318.889 141.225V134.187C318.889 133.216 318.102 132.43 317.132 132.43Z" fill="#FFF1C9"/>
<path d="M332.577 132.43H325.538C324.568 132.43 323.781 133.216 323.781 134.187V141.225C323.781 142.195 324.568 142.982 325.538 142.982H332.577C333.547 142.982 334.334 142.195 334.334 141.225V134.187C334.334 133.216 333.547 132.43 332.577 132.43Z" fill="#FFF1C9"/>
<path d="M334.331 151.676H309.008C308.823 151.676 308.645 151.602 308.513 151.471C308.382 151.34 308.308 151.162 308.308 150.976C308.308 150.79 308.382 150.612 308.513 150.481C308.645 150.35 308.823 150.276 309.008 150.276H334.331C334.516 150.276 334.695 150.35 334.826 150.481C334.957 150.612 335.031 150.79 335.031 150.976C335.031 151.162 334.957 151.34 334.826 151.471C334.695 151.602 334.516 151.676 334.331 151.676Z" fill="#262626"/>
<path d="M334.331 158.798H309.008C308.823 158.798 308.645 158.725 308.513 158.593C308.382 158.462 308.308 158.284 308.308 158.098C308.308 157.913 308.382 157.735 308.513 157.604C308.645 157.472 308.823 157.398 309.008 157.398H334.331C334.516 157.398 334.695 157.472 334.826 157.604C334.957 157.735 335.031 157.913 335.031 158.098C335.031 158.284 334.957 158.462 334.826 158.593C334.695 158.725 334.516 158.798 334.331 158.798Z" fill="#262626"/>
<path d="M326.757 166.408H309.008C308.823 166.408 308.645 166.334 308.513 166.202C308.382 166.071 308.308 165.893 308.308 165.708C308.308 165.522 308.382 165.344 308.513 165.213C308.645 165.081 308.823 165.008 309.008 165.008H326.757C326.943 165.008 327.121 165.081 327.252 165.213C327.383 165.344 327.457 165.522 327.457 165.708C327.457 165.893 327.383 166.071 327.252 166.202C327.121 166.334 326.943 166.408 326.757 166.408Z" fill="#262626"/>
<path d="M285.52 144.781V146.531C285.519 147.408 285.179 148.251 284.57 148.882C283.961 149.513 283.131 149.884 282.254 149.915C282.048 149.915 281.848 149.915 281.649 149.915C280.748 149.887 279.894 149.509 279.268 148.862C278.642 148.214 278.293 147.348 278.296 146.447V144.784C278.296 144.254 278.085 143.744 277.709 143.369C277.334 142.993 276.824 142.782 276.293 142.782C275.763 142.782 275.253 142.993 274.878 143.369C274.502 143.744 274.292 144.254 274.292 144.784V162.96C274.292 163.296 274.358 163.628 274.486 163.938C274.614 164.248 274.803 164.529 275.04 164.767C275.277 165.004 275.559 165.192 275.869 165.321C276.179 165.449 276.511 165.515 276.846 165.515H286.968C287.304 165.515 287.636 165.449 287.946 165.321C288.256 165.192 288.538 165.004 288.775 164.767C289.012 164.529 289.201 164.248 289.329 163.938C289.457 163.628 289.524 163.296 289.524 162.96V144.781C289.524 144.25 289.313 143.741 288.937 143.365C288.562 142.99 288.052 142.779 287.522 142.779C286.991 142.779 286.481 142.99 286.106 143.365C285.73 143.741 285.52 144.25 285.52 144.781Z" fill="white"/>
<path d="M243.6 250.786C243.6 249.095 237.608 247.723 230.213 247.723C222.817 247.723 216.825 249.095 216.825 250.786L215.387 265.892C218.74 265.346 223.437 265.311 227.581 267.887C229.058 268.832 230.689 269.514 232.4 269.899C235.281 270.505 239.617 270.648 244.836 268.436L243.6 250.786Z" fill="white"/>
<path d="M236.177 270.984C234.858 270.985 233.544 270.852 232.253 270.585C230.465 270.181 228.759 269.47 227.213 268.485C223.188 265.993 218.621 266.077 215.499 266.584L214.603 266.732L216.129 250.75C216.206 247.807 225.362 247.026 230.213 247.026C235.064 247.026 244.241 247.8 244.3 250.758L245.567 268.887L245.105 269.08C242.288 270.311 239.251 270.959 236.177 270.984ZM218.957 264.894C222.12 264.838 225.236 265.668 227.952 267.291C229.358 268.193 230.911 268.844 232.54 269.213C235.102 269.752 239.159 269.962 244.09 267.981L242.9 250.786C242.9 250.219 239.085 248.423 230.213 248.423C221.34 248.423 217.525 250.219 217.525 250.786V250.852L216.167 265.072C217.092 264.955 218.024 264.895 218.957 264.894Z" fill="#262626"/>
<path d="M245.76 267.197C240.205 269.409 235.585 269.265 232.519 268.66C230.712 268.275 228.981 267.596 227.395 266.647C222.961 264.068 217.98 264.107 214.41 264.649L212.951 279.024C212.764 280.854 212.964 282.704 213.537 284.453C214.11 286.202 215.043 287.811 216.277 289.176C217.51 290.542 219.017 291.634 220.699 292.381C222.381 293.128 224.201 293.514 226.041 293.513H233.541C235.352 293.514 237.142 293.14 238.802 292.417C240.461 291.693 241.954 290.635 243.185 289.309C244.417 287.982 245.362 286.416 245.961 284.708C246.56 282.999 246.8 281.186 246.666 279.38L245.76 267.197Z" fill="#F9B800"/>
<path d="M229.149 284.431H229.086C228.901 284.414 228.731 284.325 228.612 284.182C228.493 284.04 228.436 283.856 228.452 283.671L232.81 235.441C232.872 234.709 233.208 234.026 233.751 233.53C234.294 233.034 235.004 232.76 235.739 232.764H246.106C246.292 232.764 246.47 232.838 246.601 232.969C246.733 233.1 246.806 233.278 246.806 233.464C246.806 233.65 246.733 233.828 246.601 233.959C246.47 234.09 246.292 234.164 246.106 234.164H235.739C235.355 234.163 234.984 234.307 234.699 234.566C234.415 234.825 234.238 235.181 234.203 235.564L229.845 283.794C229.83 283.968 229.749 284.13 229.621 284.248C229.492 284.365 229.323 284.431 229.149 284.431Z" fill="#262626"/>
<path d="M230.184 254.45C229.782 254.45 229.379 254.45 228.98 254.429C224.672 254.266 220.439 253.244 216.531 251.423C216.447 251.384 216.372 251.329 216.31 251.261C216.248 251.193 216.2 251.114 216.168 251.027C216.137 250.941 216.122 250.849 216.126 250.757C216.13 250.665 216.152 250.575 216.191 250.492C216.23 250.408 216.285 250.333 216.353 250.271C216.421 250.209 216.5 250.16 216.586 250.129C216.673 250.097 216.765 250.083 216.857 250.087C216.949 250.091 217.039 250.113 217.122 250.152C220.857 251.895 224.903 252.873 229.022 253.029C233.94 253.206 238.83 252.22 243.295 250.152C243.379 250.113 243.469 250.09 243.561 250.086C243.654 250.082 243.746 250.096 243.833 250.127C243.919 250.159 243.999 250.207 244.067 250.27C244.135 250.332 244.19 250.408 244.229 250.491C244.267 250.575 244.289 250.666 244.293 250.758C244.296 250.85 244.282 250.942 244.25 251.029C244.218 251.115 244.169 251.195 244.106 251.262C244.043 251.33 243.967 251.384 243.883 251.423C239.589 253.408 234.915 254.441 230.184 254.45Z" fill="#262626"/>
<path d="M185.937 190.243C185.759 190.243 185.587 190.175 185.456 190.053C185.326 189.93 185.248 189.763 185.237 189.585L184.824 182.466C184.813 182.28 184.877 182.098 185.001 181.959C185.124 181.82 185.298 181.736 185.484 181.725C185.67 181.715 185.852 181.778 185.991 181.902C186.129 182.026 186.213 182.199 186.224 182.385L186.637 189.501C186.643 189.592 186.63 189.685 186.6 189.772C186.57 189.859 186.523 189.939 186.462 190.008C186.401 190.077 186.327 190.133 186.244 190.173C186.161 190.214 186.071 190.237 185.979 190.243H185.937Z" fill="#262626"/>
<path d="M193.036 189.725C192.857 189.725 192.685 189.657 192.555 189.535C192.425 189.412 192.346 189.245 192.336 189.067L191.923 181.948C191.917 181.856 191.93 181.764 191.96 181.677C191.991 181.59 192.038 181.509 192.099 181.441C192.16 181.372 192.235 181.316 192.317 181.276C192.4 181.236 192.49 181.213 192.582 181.207C192.674 181.202 192.766 181.215 192.853 181.245C192.94 181.275 193.02 181.323 193.089 181.384C193.158 181.445 193.214 181.519 193.254 181.602C193.294 181.685 193.317 181.775 193.323 181.867L193.736 189C193.741 189.092 193.729 189.184 193.699 189.271C193.669 189.358 193.622 189.439 193.561 189.508C193.499 189.577 193.425 189.633 193.342 189.673C193.26 189.713 193.17 189.737 193.078 189.742L193.036 189.725Z" fill="#262626"/>
<path d="M120.536 191.132H46.2804C44.9808 191.132 43.7345 190.615 42.8155 189.696C41.8966 188.777 41.3804 187.531 41.3804 186.232V138.835C41.3804 137.535 41.8966 136.289 42.8155 135.37C43.7345 134.451 44.9808 133.935 46.2804 133.935H120.536C121.836 133.935 123.082 134.451 124.001 135.37C124.92 136.289 125.436 137.535 125.436 138.835V186.221C125.438 186.865 125.312 187.504 125.066 188.099C124.821 188.695 124.46 189.236 124.005 189.693C123.55 190.149 123.009 190.511 122.414 190.757C121.819 191.004 121.181 191.132 120.536 191.132ZM46.2804 135.324C45.3521 135.324 44.4619 135.693 43.8055 136.349C43.1491 137.006 42.7804 137.896 42.7804 138.824V186.221C42.7804 187.149 43.1491 188.039 43.8055 188.696C44.4619 189.352 45.3521 189.721 46.2804 189.721H120.536C121.465 189.721 122.355 189.352 123.011 188.696C123.668 188.039 124.036 187.149 124.036 186.221V138.835C124.036 137.906 123.668 137.016 123.011 136.36C122.355 135.703 121.465 135.335 120.536 135.335L46.2804 135.324Z" fill="#262626"/>
<path d="M113.866 169.781H82.415C80.9092 169.781 79.6885 171.002 79.6885 172.508V173.498C79.6885 175.004 80.9092 176.225 82.415 176.225H113.866C115.372 176.225 116.592 175.004 116.592 173.498V172.508C116.592 171.002 115.372 169.781 113.866 169.781Z" fill="#FFBB45"/>
<path d="M115.052 153.475H81.2281C81.0424 153.475 80.8644 153.401 80.7331 153.27C80.6018 153.139 80.5281 152.961 80.5281 152.775C80.5281 152.589 80.6018 152.411 80.7331 152.28C80.8644 152.149 81.0424 152.075 81.2281 152.075H115.052C115.238 152.075 115.416 152.149 115.547 152.28C115.678 152.411 115.752 152.589 115.752 152.775C115.752 152.961 115.678 153.139 115.547 153.27C115.416 153.401 115.238 153.475 115.052 153.475Z" fill="#262626"/>
<path d="M110.289 161.129H81.2386C81.0529 161.129 80.8749 161.056 80.7436 160.924C80.6123 160.793 80.5386 160.615 80.5386 160.429C80.5386 160.244 80.6123 160.066 80.7436 159.935C80.8749 159.803 81.0529 159.729 81.2386 159.729H110.289C110.474 159.729 110.652 159.803 110.784 159.935C110.915 160.066 110.989 160.244 110.989 160.429C110.989 160.615 110.915 160.793 110.784 160.924C110.652 161.056 110.474 161.129 110.289 161.129Z" fill="#262626"/>
<path d="M57.1691 154.231C56.9834 154.231 56.8054 154.157 56.6741 154.026C56.5428 153.895 56.4691 153.717 56.4691 153.531C56.4096 151.081 57.3231 149.6 58.1001 148.795C58.9662 147.887 60.1532 147.353 61.4076 147.308C62.6323 147.329 63.7995 147.832 64.6556 148.708C65.4501 149.506 66.4056 150.99 66.3636 153.524C66.3636 153.71 66.2898 153.888 66.1585 154.019C66.0273 154.15 65.8492 154.224 65.6636 154.224C65.4779 154.224 65.2999 154.15 65.1686 154.019C65.0373 153.888 64.9636 153.71 64.9636 153.524C64.9881 151.476 64.2636 150.321 63.6651 149.712C63.0689 149.11 62.2654 148.757 61.4181 148.725C60.5395 148.76 59.7093 149.137 59.1046 149.775C58.2576 150.65 57.8306 151.938 57.8691 153.503C57.8691 153.689 57.7953 153.867 57.664 153.998C57.5328 154.129 57.3547 154.203 57.1691 154.203V154.231Z" fill="#262626"/>
<path d="M69.9687 177.1H52.9447C52.5276 177.1 52.1152 177.011 51.7352 176.839C51.3552 176.667 51.0165 176.415 50.7417 176.101C50.4669 175.787 50.2625 175.418 50.142 175.019C50.0215 174.62 49.9878 174.199 50.0432 173.785L52.4162 156.082C52.5112 155.38 52.8576 154.737 53.3912 154.271C53.9247 153.805 54.6093 153.548 55.3177 153.548H67.2002C67.8977 153.548 68.5725 153.796 69.1027 154.249C69.6328 154.703 69.9835 155.33 70.0912 156.019L72.8667 173.722C72.9326 174.141 72.9069 174.568 72.7915 174.975C72.676 175.382 72.4734 175.759 72.1978 176.081C71.9222 176.402 71.5802 176.659 71.1953 176.835C70.8104 177.011 70.3919 177.102 69.9687 177.1Z" fill="#FFF1C9"/>
<path d="M194.218 293.353H137.641V281.12H194.218C195 281.12 195.749 281.43 196.302 281.983C196.855 282.536 197.165 283.285 197.165 284.067V290.402C197.166 290.789 197.09 291.173 196.942 291.531C196.794 291.889 196.577 292.214 196.303 292.488C196.029 292.762 195.704 292.98 195.347 293.128C194.989 293.276 194.605 293.353 194.218 293.353Z" fill="#262626"/>
<path d="M144.029 293.353H77.7177C76.4817 293.364 75.2749 292.976 74.2772 292.247C73.2795 291.517 72.5442 290.484 72.1807 289.303L55.9442 234.255C54.8942 230.688 57.6557 227.136 61.4812 227.136H124.019C125.31 227.121 126.567 227.543 127.587 228.334C128.607 229.124 129.329 230.237 129.637 231.49L144.029 293.353Z" fill="#262626"/>
<path d="M95.8689 274.652C100.943 274.652 105.056 270.539 105.056 265.464C105.056 260.39 100.943 256.277 95.8689 256.277C90.7948 256.277 86.6814 260.39 86.6814 265.464C86.6814 270.539 90.7948 274.652 95.8689 274.652Z" fill="#FFF1C9"/>
<path d="M93.8485 258.934C93.6917 258.933 93.5396 258.88 93.4165 258.783C93.2933 258.686 93.2064 258.55 93.1695 258.398L92.0705 253.897C92.0487 253.808 92.0447 253.715 92.0587 253.624C92.0728 253.533 92.1046 253.446 92.1524 253.367C92.2489 253.208 92.4045 253.094 92.585 253.05C92.7656 253.006 92.9563 253.035 93.1151 253.132C93.2739 253.228 93.388 253.384 93.432 253.565L94.531 258.066C94.553 258.155 94.5571 258.248 94.5431 258.339C94.5291 258.43 94.4973 258.517 94.4495 258.596C94.4017 258.674 94.3388 258.743 94.2646 258.797C94.1903 258.852 94.106 258.891 94.0165 258.913C93.9616 258.926 93.9052 258.933 93.8485 258.934Z" fill="#F9B800"/>
<path d="M321.671 293.227H44.2117C44.0261 293.227 43.848 293.153 43.7167 293.022C43.5855 292.89 43.5117 292.712 43.5117 292.527C43.5117 292.341 43.5855 292.163 43.7167 292.032C43.848 291.9 44.0261 291.827 44.2117 291.827H321.671C321.856 291.827 322.034 291.9 322.166 292.032C322.297 292.163 322.371 292.341 322.371 292.527C322.371 292.712 322.297 292.89 322.166 293.022C322.034 293.153 321.856 293.227 321.671 293.227Z" fill="#262626"/>
<path d="M180.845 105.217C178.487 105.22 176.181 104.524 174.219 103.217C172.257 101.91 170.727 100.05 169.822 97.8723C168.917 95.6949 168.679 93.2982 169.137 90.9853C169.595 88.6724 170.728 86.5472 172.394 84.8788C174.06 83.2103 176.184 82.0736 178.496 81.6123C180.808 81.151 183.205 81.386 185.384 82.2875C187.563 83.189 189.425 84.7165 190.735 86.6767C192.046 88.6369 192.745 90.9417 192.745 93.2995C192.74 96.4558 191.486 99.4817 189.255 101.715C187.025 103.949 184.001 105.208 180.845 105.217ZM180.845 82.782C178.768 82.782 176.738 83.3978 175.011 84.5516C173.285 85.7053 171.939 87.3452 171.144 89.2638C170.349 91.1825 170.142 93.2937 170.547 95.3305C170.952 97.3673 171.952 99.2382 173.42 100.707C174.889 102.175 176.76 103.175 178.796 103.58C180.833 103.985 182.944 103.777 184.863 102.983C186.782 102.188 188.422 100.842 189.575 99.1155C190.729 97.3888 191.345 95.3587 191.345 93.282C191.338 90.4995 190.229 87.8331 188.261 85.8656C186.294 83.898 183.627 82.7894 180.845 82.782Z" fill="white"/>
<path d="M181.338 51.8175H180.355C178.855 51.8175 177.639 53.0335 177.639 54.5335V76.9825C177.639 78.4825 178.855 79.6985 180.355 79.6985H181.338C182.838 79.6985 184.054 78.4825 184.054 76.9825V54.5335C184.054 53.0335 182.838 51.8175 181.338 51.8175Z" fill="#262626"/>
<path d="M180.334 71.9215C172.925 72.0334 165.683 74.1403 159.369 78.0206C153.056 81.9009 147.905 87.4111 144.459 93.9715C144.341 94.1951 144.283 94.4456 144.29 94.6986C144.297 94.9515 144.369 95.1983 144.5 95.415C144.631 95.6317 144.815 95.8108 145.036 95.9351C145.256 96.0593 145.505 96.1244 145.758 96.124H215.95C216.203 96.1238 216.452 96.0583 216.672 95.9338C216.892 95.8093 217.076 95.6301 217.206 95.4135C217.336 95.1969 217.408 94.9503 217.415 94.6977C217.422 94.445 217.364 94.1949 217.245 93.9715C213.717 87.2564 208.404 81.645 201.891 77.7547C195.379 73.8644 187.92 71.8459 180.334 71.9215Z" fill="#FFF1C9"/>
<path d="M159.285 89.4075C154.679 89.4075 150.923 86.296 150.867 86.2575C150.725 86.1378 150.637 85.9665 150.621 85.7814C150.605 85.5963 150.664 85.4125 150.783 85.2705C150.903 85.1285 151.074 85.0399 151.259 85.0241C151.445 85.0084 151.628 85.0668 151.77 85.1865C152.078 85.4455 159.358 91.4445 165.574 85.2285L165.998 84.805L166.484 85.155C166.834 85.407 175.031 91.273 181.083 85.225L181.492 84.812L181.975 85.141C183.353 86.0249 184.861 86.6863 186.445 87.101C189.717 87.927 192.426 87.297 194.495 85.225L194.929 84.791L195.415 85.162C195.741 85.4105 203.49 91.203 209.471 85.225C209.604 85.1041 209.779 85.039 209.958 85.0431C210.138 85.0472 210.309 85.1202 210.436 85.2471C210.564 85.3739 210.637 85.5448 210.642 85.7244C210.647 85.9041 210.582 86.0787 210.462 86.212C204.533 92.141 197.032 87.9095 195.062 86.6145C192.689 88.7145 189.591 89.3515 186.06 88.4485C184.517 88.0399 183.038 87.4179 181.667 86.6005C175.717 92.015 168.14 87.864 166.152 86.6005C163.873 88.697 161.483 89.4075 159.285 89.4075Z" fill="#D3B970"/>
<path d="M139.44 274.967C139.289 274.963 139.144 274.911 139.025 274.817C138.907 274.724 138.822 274.595 138.782 274.45C138.743 274.304 138.752 274.15 138.807 274.01C138.862 273.87 138.962 273.751 139.09 273.672C141.365 272.272 143.724 270.97 146.09 269.763C149.24 268.17 152.484 266.714 155.767 265.437C155.94 265.369 156.133 265.373 156.303 265.448C156.473 265.523 156.606 265.662 156.674 265.836C156.741 266.009 156.737 266.201 156.662 266.371C156.587 266.541 156.448 266.675 156.275 266.742C153.034 268.002 149.821 269.437 146.723 271.012C144.382 272.202 142.058 273.501 139.807 274.862C139.697 274.931 139.57 274.968 139.44 274.967Z" fill="#262626"/>
<path d="M49.1011 254.821L53.1576 239.463H30.1451L33.7991 254.989C29.6489 256.8 26.2525 259.99 24.1853 264.018C22.1182 268.047 21.5074 272.666 22.4567 277.094C23.4059 281.521 25.8566 285.484 29.3936 288.311C32.9306 291.138 37.3363 292.656 41.864 292.606C46.3917 292.556 50.763 290.943 54.2371 288.039C57.7112 285.134 60.0743 281.119 60.9261 276.671C61.7779 272.224 61.0659 267.619 58.9108 263.637C56.7557 259.655 53.29 256.54 49.1011 254.821Z" fill="white"/>
<path d="M41.6501 293.3C37.033 293.296 32.5548 291.721 28.9523 288.833C25.3499 285.945 22.8378 281.917 21.8295 277.411C20.8213 272.906 21.3768 268.191 23.4049 264.043C25.4329 259.895 28.8125 256.561 32.9876 254.59L29.2601 238.763H54.0646L49.9346 254.415C54.1825 256.315 57.6501 259.614 59.7582 263.762C61.8664 267.911 62.4875 272.657 61.5179 277.208C60.5483 281.759 58.0466 285.84 54.4307 288.768C50.8147 291.697 46.3034 293.297 41.6501 293.3ZM31.0276 240.163L34.6151 255.399L34.0796 255.63C30.0763 257.375 26.7999 260.452 24.8055 264.337C22.8111 268.223 22.2215 272.678 23.1366 276.949C24.0516 281.22 26.4151 285.042 29.8265 287.769C33.2378 290.497 37.4872 291.96 41.8544 291.913C46.2216 291.865 50.438 290.309 53.789 287.508C57.1401 284.707 59.4196 280.834 60.2413 276.544C61.063 272.255 60.3763 267.813 58.2976 263.972C56.2189 260.131 52.8761 257.127 48.8356 255.468L48.2686 255.234L52.2481 240.163H31.0276Z" fill="#262626"/>
<path d="M41.6427 241.371C48.5203 241.371 54.0957 240.189 54.0957 238.732C54.0957 237.274 48.5203 236.093 41.6427 236.093C34.7651 236.093 29.1897 237.274 29.1897 238.732C29.1897 240.189 34.7651 241.371 41.6427 241.371Z" fill="#262626"/>
<path d="M38.2554 240.856C38.1126 240.856 37.9733 240.811 37.8563 240.729C37.7393 240.647 37.6502 240.532 37.6009 240.398C33.3519 228.813 24.5704 219.398 24.4829 219.317C24.4197 219.25 24.3703 219.172 24.3375 219.086C24.3047 219 24.2892 218.908 24.2918 218.816C24.2944 218.724 24.3151 218.633 24.3527 218.549C24.3903 218.465 24.444 218.39 24.5109 218.327C24.5778 218.263 24.6565 218.214 24.7424 218.181C24.8284 218.148 24.92 218.133 25.012 218.135C25.104 218.138 25.1945 218.159 25.2785 218.196C25.3625 218.234 25.4382 218.288 25.5014 218.355C25.5924 218.453 34.5664 228.057 38.9134 239.915C38.9736 240.087 38.9641 240.276 38.887 240.441C38.8098 240.607 38.6711 240.735 38.5004 240.8C38.4226 240.833 38.3397 240.852 38.2554 240.856Z" fill="#262626"/>
<path d="M43.8621 240.95C43.6765 240.95 43.4984 240.877 43.3671 240.745C43.2359 240.614 43.1621 240.436 43.1621 240.25V230.226C43.1621 230.041 43.2359 229.863 43.3671 229.732C43.4984 229.6 43.6765 229.526 43.8621 229.526C44.0478 229.526 44.2258 229.6 44.3571 229.732C44.4884 229.863 44.5621 230.041 44.5621 230.226V240.25C44.5621 240.436 44.4884 240.614 44.3571 240.745C44.2258 240.877 44.0478 240.95 43.8621 240.95Z" fill="#262626"/>
<path d="M28.5356 212.31H25.5501C25.4941 212.156 25.4311 212.006 25.3646 211.859L27.5381 209.934C27.7682 209.735 27.9567 209.494 28.0925 209.222C28.2284 208.95 28.309 208.655 28.3295 208.352C28.3501 208.049 28.3103 207.745 28.2124 207.457C28.1145 207.17 27.9604 206.904 27.7592 206.677C27.558 206.45 27.3136 206.264 27.0402 206.132C26.7668 206 26.4699 205.924 26.1667 205.907C25.8634 205.891 25.56 205.935 25.2739 206.036C24.9878 206.138 24.7247 206.296 24.5001 206.5L22.2111 208.527C22.1761 208.558 22.1481 208.597 22.1131 208.632C21.9696 208.565 21.8226 208.506 21.6721 208.45V205.674C21.6489 205.081 21.397 204.52 20.9693 204.109C20.5416 203.697 19.9712 203.468 19.3778 203.468C18.7844 203.468 18.214 203.697 17.7863 204.109C17.3586 204.52 17.1067 205.081 17.0836 205.674V208.45C16.8714 208.527 16.6635 208.616 16.4605 208.716C16.3961 208.636 16.3259 208.561 16.2506 208.492L13.944 206.5C13.4798 206.13 12.8904 205.954 12.2993 206.01C11.7083 206.065 11.1616 206.347 10.7741 206.796C10.3865 207.246 10.1881 207.828 10.2205 208.421C10.253 209.014 10.5137 209.571 10.948 209.976L13.265 211.974C13.2834 211.99 13.3033 212.004 13.3245 212.016C13.2825 212.114 13.2476 212.216 13.2091 212.317H10.332C9.72707 212.32 9.14771 212.562 8.72025 212.99C8.29279 213.418 8.05189 213.998 8.05005 214.603C8.05005 215.211 8.29147 215.794 8.72129 216.225C9.15112 216.655 9.73422 216.898 10.3425 216.899H13.1915L13.2615 217.088H13.2406L10.948 219.114C10.515 219.523 10.2581 220.085 10.2316 220.68C10.2051 221.276 10.411 221.858 10.8059 222.304C11.2008 222.75 11.7537 223.026 12.3478 223.072C12.9418 223.118 13.5306 222.931 13.9896 222.551L16.2785 220.525L16.3276 220.472C16.5779 220.607 16.8375 220.724 17.1045 220.822V223.573C17.1277 224.166 17.3796 224.727 17.8073 225.138C18.235 225.55 18.8054 225.779 19.3988 225.779C19.9922 225.779 20.5626 225.55 20.9903 225.138C21.418 224.727 21.6699 224.166 21.6931 223.573V220.85C21.8506 220.791 22.0081 220.728 22.1621 220.654L24.409 222.59C24.8718 222.985 25.4728 223.181 26.08 223.134C26.6871 223.087 27.2506 222.8 27.6466 222.338C28.0425 221.875 28.2383 221.274 28.1911 220.667C28.1438 220.059 27.8573 219.496 27.3946 219.1L25.3996 217.378C25.4696 217.221 25.5326 217.06 25.5921 216.899H28.5356C29.1445 216.899 29.7285 216.657 30.1591 216.226C30.5897 215.795 30.8316 215.211 30.8316 214.603C30.8306 213.994 30.5883 213.411 30.1578 212.981C29.7273 212.551 29.1439 212.31 28.5356 212.31Z" fill="#FFE18B"/>
<path d="M28.5356 212.31H25.5501C25.4941 212.156 25.4311 212.006 25.3646 211.859L27.5381 209.934C27.7682 209.735 27.9567 209.494 28.0925 209.222C28.2284 208.95 28.309 208.655 28.3295 208.352C28.3501 208.049 28.3103 207.745 28.2124 207.457C28.1145 207.17 27.9604 206.904 27.7592 206.677C27.558 206.45 27.3136 206.264 27.0402 206.132C26.7668 206 26.4699 205.924 26.1667 205.907C25.8634 205.891 25.56 205.935 25.2739 206.036C24.9878 206.138 24.7247 206.296 24.5001 206.5L22.2111 208.527C22.1761 208.558 22.1481 208.597 22.1131 208.632C21.9696 208.565 21.8226 208.506 21.6721 208.45V205.674C21.6489 205.081 21.397 204.52 20.9693 204.109C20.5416 203.697 19.9712 203.468 19.3778 203.468C18.7844 203.468 18.214 203.697 17.7863 204.109C17.3586 204.52 17.1067 205.081 17.0836 205.674V208.45C16.8714 208.527 16.6635 208.616 16.4605 208.716C16.3961 208.636 16.3259 208.561 16.2506 208.492L13.944 206.5C13.4798 206.13 12.8904 205.954 12.2993 206.01C11.7083 206.065 11.1616 206.347 10.7741 206.796C10.3865 207.246 10.1881 207.828 10.2205 208.421C10.253 209.014 10.5137 209.571 10.948 209.976L13.265 211.974C13.2834 211.99 13.3033 212.004 13.3245 212.016C13.2825 212.114 13.2476 212.216 13.2091 212.317H10.332C9.72707 212.32 9.14771 212.562 8.72025 212.99C8.29279 213.418 8.05189 213.998 8.05005 214.603C8.05005 215.211 8.29147 215.794 8.72129 216.225C9.15112 216.655 9.73422 216.898 10.3425 216.899H13.1915L13.2615 217.088H13.2406L10.948 219.114C10.515 219.523 10.2581 220.085 10.2316 220.68C10.2051 221.276 10.411 221.858 10.8059 222.304C11.2008 222.75 11.7537 223.026 12.3478 223.072C12.9418 223.118 13.5306 222.931 13.9896 222.551L16.2785 220.525L16.3276 220.472C16.5779 220.607 16.8375 220.724 17.1045 220.822V223.573C17.1277 224.166 17.3796 224.727 17.8073 225.138C18.235 225.55 18.8054 225.779 19.3988 225.779C19.9922 225.779 20.5626 225.55 20.9903 225.138C21.418 224.727 21.6699 224.166 21.6931 223.573V220.85C21.8506 220.791 22.0081 220.728 22.1621 220.654L24.409 222.59C24.8718 222.985 25.4728 223.181 26.08 223.134C26.6871 223.087 27.2506 222.8 27.6466 222.338C28.0425 221.875 28.2383 221.274 28.1911 220.667C28.1438 220.059 27.8573 219.496 27.3946 219.1L25.3996 217.378C25.4696 217.221 25.5326 217.06 25.5921 216.899H28.5356C29.1445 216.899 29.7285 216.657 30.1591 216.226C30.5897 215.795 30.8316 215.211 30.8316 214.603C30.8306 213.994 30.5883 213.411 30.1578 212.981C29.7273 212.551 29.1439 212.31 28.5356 212.31Z" fill="#FFE18B"/>
<path d="M28.5356 212.31H25.5501C25.4941 212.156 25.4311 212.006 25.3646 211.859L27.5381 209.934C27.7682 209.735 27.9567 209.494 28.0925 209.222C28.2284 208.95 28.309 208.655 28.3295 208.352C28.3501 208.049 28.3103 207.745 28.2124 207.457C28.1145 207.17 27.9604 206.904 27.7592 206.677C27.558 206.45 27.3136 206.264 27.0402 206.132C26.7668 206 26.4699 205.924 26.1667 205.907C25.8634 205.891 25.56 205.935 25.2739 206.036C24.9878 206.138 24.7247 206.296 24.5001 206.5L22.2111 208.527C22.1761 208.558 22.1481 208.597 22.1131 208.632C21.9696 208.565 21.8226 208.506 21.6721 208.45V205.674C21.6489 205.081 21.397 204.52 20.9693 204.109C20.5416 203.697 19.9712 203.468 19.3778 203.468C18.7844 203.468 18.214 203.697 17.7863 204.109C17.3586 204.52 17.1067 205.081 17.0836 205.674V208.45C16.8714 208.527 16.6635 208.616 16.4605 208.716C16.3961 208.636 16.3259 208.561 16.2506 208.492L13.944 206.5C13.4798 206.13 12.8904 205.954 12.2993 206.01C11.7083 206.065 11.1616 206.347 10.7741 206.796C10.3865 207.246 10.1881 207.828 10.2205 208.421C10.253 209.014 10.5137 209.571 10.948 209.976L13.265 211.974C13.2834 211.99 13.3033 212.004 13.3245 212.016C13.2825 212.114 13.2476 212.216 13.2091 212.317H10.332C9.72707 212.32 9.14771 212.562 8.72025 212.99C8.29279 213.418 8.05189 213.998 8.05005 214.603C8.05005 215.211 8.29147 215.794 8.72129 216.225C9.15112 216.655 9.73422 216.898 10.3425 216.899H13.1915L13.2615 217.088H13.2406L10.948 219.114C10.515 219.523 10.2581 220.085 10.2316 220.68C10.2051 221.276 10.411 221.858 10.8059 222.304C11.2008 222.75 11.7537 223.026 12.3478 223.072C12.9418 223.118 13.5306 222.931 13.9896 222.551L16.2785 220.525L16.3276 220.472C16.5779 220.607 16.8375 220.724 17.1045 220.822V223.573C17.1277 224.166 17.3796 224.727 17.8073 225.138C18.235 225.55 18.8054 225.779 19.3988 225.779C19.9922 225.779 20.5626 225.55 20.9903 225.138C21.418 224.727 21.6699 224.166 21.6931 223.573V220.85C21.8506 220.791 22.0081 220.728 22.1621 220.654L24.409 222.59C24.8718 222.985 25.4728 223.181 26.08 223.134C26.6871 223.087 27.2506 222.8 27.6466 222.338C28.0425 221.875 28.2383 221.274 28.1911 220.667C28.1438 220.059 27.8573 219.496 27.3946 219.1L25.3996 217.378C25.4696 217.221 25.5326 217.06 25.5921 216.899H28.5356C29.1445 216.899 29.7285 216.657 30.1591 216.226C30.5897 215.795 30.8316 215.211 30.8316 214.603C30.8306 213.994 30.5883 213.411 30.1578 212.981C29.7273 212.551 29.1439 212.31 28.5356 212.31Z" fill="#FFE18B"/>
<path d="M28.5356 212.31H25.5501C25.4941 212.156 25.4311 212.006 25.3646 211.859L27.5381 209.934C27.7682 209.735 27.9567 209.494 28.0925 209.222C28.2284 208.95 28.309 208.655 28.3295 208.352C28.3501 208.049 28.3103 207.745 28.2124 207.457C28.1145 207.17 27.9604 206.904 27.7592 206.677C27.558 206.45 27.3136 206.264 27.0402 206.132C26.7668 206 26.4699 205.924 26.1667 205.907C25.8634 205.891 25.56 205.935 25.2739 206.036C24.9878 206.138 24.7247 206.296 24.5001 206.5L22.2111 208.527C22.1761 208.558 22.1481 208.597 22.1131 208.632C21.9696 208.565 21.8226 208.506 21.6721 208.45V205.674C21.6489 205.081 21.397 204.52 20.9693 204.109C20.5416 203.697 19.9712 203.468 19.3778 203.468C18.7844 203.468 18.214 203.697 17.7863 204.109C17.3586 204.52 17.1067 205.081 17.0836 205.674V208.45C16.8714 208.527 16.6635 208.616 16.4605 208.716C16.3961 208.636 16.3259 208.561 16.2506 208.492L13.944 206.5C13.4798 206.13 12.8904 205.954 12.2993 206.01C11.7083 206.065 11.1616 206.347 10.7741 206.796C10.3865 207.246 10.1881 207.828 10.2205 208.421C10.253 209.014 10.5137 209.571 10.948 209.976L13.265 211.974C13.2834 211.99 13.3033 212.004 13.3245 212.016C13.2825 212.114 13.2476 212.216 13.2091 212.317H10.332C9.72707 212.32 9.14771 212.562 8.72025 212.99C8.29279 213.418 8.05189 213.998 8.05005 214.603C8.05005 215.211 8.29147 215.794 8.72129 216.225C9.15112 216.655 9.73422 216.898 10.3425 216.899H13.1915L13.2615 217.088H13.2406L10.948 219.114C10.515 219.523 10.2581 220.085 10.2316 220.68C10.2051 221.276 10.411 221.858 10.8059 222.304C11.2008 222.75 11.7537 223.026 12.3478 223.072C12.9418 223.118 13.5306 222.931 13.9896 222.551L16.2785 220.525L16.3276 220.472C16.5779 220.607 16.8375 220.724 17.1045 220.822V223.573C17.1277 224.166 17.3796 224.727 17.8073 225.138C18.235 225.55 18.8054 225.779 19.3988 225.779C19.9922 225.779 20.5626 225.55 20.9903 225.138C21.418 224.727 21.6699 224.166 21.6931 223.573V220.85C21.8506 220.791 22.0081 220.728 22.1621 220.654L24.409 222.59C24.8718 222.985 25.4728 223.181 26.08 223.134C26.6871 223.087 27.2506 222.8 27.6466 222.338C28.0425 221.875 28.2383 221.274 28.1911 220.667C28.1438 220.059 27.8573 219.496 27.3946 219.1L25.3996 217.378C25.4696 217.221 25.5326 217.06 25.5921 216.899H28.5356C29.1445 216.899 29.7285 216.657 30.1591 216.226C30.5897 215.795 30.8316 215.211 30.8316 214.603C30.8306 213.994 30.5883 213.411 30.1578 212.981C29.7273 212.551 29.1439 212.31 28.5356 212.31Z" fill="#FFE18B"/>
<path d="M28.5356 212.31H25.5501C25.4941 212.156 25.4311 212.006 25.3646 211.859L27.5381 209.934C27.7682 209.735 27.9567 209.494 28.0925 209.222C28.2284 208.95 28.309 208.655 28.3295 208.352C28.3501 208.049 28.3103 207.745 28.2124 207.457C28.1145 207.17 27.9604 206.904 27.7592 206.677C27.558 206.45 27.3136 206.264 27.0402 206.132C26.7668 206 26.4699 205.924 26.1667 205.907C25.8634 205.891 25.56 205.935 25.2739 206.036C24.9878 206.138 24.7247 206.296 24.5001 206.5L22.2111 208.527C22.1761 208.558 22.1481 208.597 22.1131 208.632C21.9696 208.565 21.8226 208.506 21.6721 208.45V205.674C21.6489 205.081 21.397 204.52 20.9693 204.109C20.5416 203.697 19.9712 203.468 19.3778 203.468C18.7844 203.468 18.214 203.697 17.7863 204.109C17.3586 204.52 17.1067 205.081 17.0836 205.674V208.45C16.8714 208.527 16.6635 208.616 16.4605 208.716C16.3961 208.636 16.3259 208.561 16.2506 208.492L13.944 206.5C13.4798 206.13 12.8904 205.954 12.2993 206.01C11.7083 206.065 11.1616 206.347 10.7741 206.796C10.3865 207.246 10.1881 207.828 10.2205 208.421C10.253 209.014 10.5137 209.571 10.948 209.976L13.265 211.974C13.2834 211.99 13.3033 212.004 13.3245 212.016C13.2825 212.114 13.2476 212.216 13.2091 212.317H10.332C9.72707 212.32 9.14771 212.562 8.72025 212.99C8.29279 213.418 8.05189 213.998 8.05005 214.603C8.05005 215.211 8.29147 215.794 8.72129 216.225C9.15112 216.655 9.73422 216.898 10.3425 216.899H13.1915L13.2615 217.088H13.2406L10.948 219.114C10.515 219.523 10.2581 220.085 10.2316 220.68C10.2051 221.276 10.411 221.858 10.8059 222.304C11.2008 222.75 11.7537 223.026 12.3478 223.072C12.9418 223.118 13.5306 222.931 13.9896 222.551L16.2785 220.525L16.3276 220.472C16.5779 220.607 16.8375 220.724 17.1045 220.822V223.573C17.1277 224.166 17.3796 224.727 17.8073 225.138C18.235 225.55 18.8054 225.779 19.3988 225.779C19.9922 225.779 20.5626 225.55 20.9903 225.138C21.418 224.727 21.6699 224.166 21.6931 223.573V220.85C21.8506 220.791 22.0081 220.728 22.1621 220.654L24.409 222.59C24.8718 222.985 25.4728 223.181 26.08 223.134C26.6871 223.087 27.2506 222.8 27.6466 222.338C28.0425 221.875 28.2383 221.274 28.1911 220.667C28.1438 220.059 27.8573 219.496 27.3946 219.1L25.3996 217.378C25.4696 217.221 25.5326 217.06 25.5921 216.899H28.5356C29.1445 216.899 29.7285 216.657 30.1591 216.226C30.5897 215.795 30.8316 215.211 30.8316 214.603C30.8306 213.994 30.5883 213.411 30.1578 212.981C29.7273 212.551 29.1439 212.31 28.5356 212.31Z" fill="#FFE18B"/>
<path d="M28.5356 212.31H25.5501C25.4941 212.156 25.4311 212.006 25.3646 211.859L27.5381 209.934C27.7682 209.735 27.9567 209.494 28.0925 209.222C28.2284 208.95 28.309 208.655 28.3295 208.352C28.3501 208.049 28.3103 207.745 28.2124 207.457C28.1145 207.17 27.9604 206.904 27.7592 206.677C27.558 206.45 27.3136 206.264 27.0402 206.132C26.7668 206 26.4699 205.924 26.1667 205.907C25.8634 205.891 25.56 205.935 25.2739 206.036C24.9878 206.138 24.7247 206.296 24.5001 206.5L22.2111 208.527C22.1761 208.558 22.1481 208.597 22.1131 208.632C21.9696 208.565 21.8226 208.506 21.6721 208.45V205.674C21.6489 205.081 21.397 204.52 20.9693 204.109C20.5416 203.697 19.9712 203.468 19.3778 203.468C18.7844 203.468 18.214 203.697 17.7863 204.109C17.3586 204.52 17.1067 205.081 17.0836 205.674V208.45C16.8714 208.527 16.6635 208.616 16.4605 208.716C16.3961 208.636 16.3259 208.561 16.2506 208.492L13.944 206.5C13.4798 206.13 12.8904 205.954 12.2993 206.01C11.7083 206.065 11.1616 206.347 10.7741 206.796C10.3865 207.246 10.1881 207.828 10.2205 208.421C10.253 209.014 10.5137 209.571 10.948 209.976L13.265 211.974C13.2834 211.99 13.3033 212.004 13.3245 212.016C13.2825 212.114 13.2476 212.216 13.2091 212.317H10.332C9.72707 212.32 9.14771 212.562 8.72025 212.99C8.29279 213.418 8.05189 213.998 8.05005 214.603C8.05005 215.211 8.29147 215.794 8.72129 216.225C9.15112 216.655 9.73422 216.898 10.3425 216.899H13.1915L13.2615 217.088H13.2406L10.948 219.114C10.515 219.523 10.2581 220.085 10.2316 220.68C10.2051 221.276 10.411 221.858 10.8059 222.304C11.2008 222.75 11.7537 223.026 12.3478 223.072C12.9418 223.118 13.5306 222.931 13.9896 222.551L16.2785 220.525L16.3276 220.472C16.5779 220.607 16.8375 220.724 17.1045 220.822V223.573C17.1277 224.166 17.3796 224.727 17.8073 225.138C18.235 225.55 18.8054 225.779 19.3988 225.779C19.9922 225.779 20.5626 225.55 20.9903 225.138C21.418 224.727 21.6699 224.166 21.6931 223.573V220.85C21.8506 220.791 22.0081 220.728 22.1621 220.654L24.409 222.59C24.8718 222.985 25.4728 223.181 26.08 223.134C26.6871 223.087 27.2506 222.8 27.6466 222.338C28.0425 221.875 28.2383 221.274 28.1911 220.667C28.1438 220.059 27.8573 219.496 27.3946 219.1L25.3996 217.378C25.4696 217.221 25.5326 217.06 25.5921 216.899H28.5356C29.1445 216.899 29.7285 216.657 30.1591 216.226C30.5897 215.795 30.8316 215.211 30.8316 214.603C30.8306 213.994 30.5883 213.411 30.1578 212.981C29.7273 212.551 29.1439 212.31 28.5356 212.31Z" fill="#FFE18B"/>
<path d="M28.5356 212.31H25.5501C25.4941 212.156 25.4311 212.006 25.3646 211.859L27.5381 209.934C27.7682 209.735 27.9567 209.494 28.0925 209.222C28.2284 208.95 28.309 208.655 28.3295 208.352C28.3501 208.049 28.3103 207.745 28.2124 207.457C28.1145 207.17 27.9604 206.904 27.7592 206.677C27.558 206.45 27.3136 206.264 27.0402 206.132C26.7668 206 26.4699 205.924 26.1667 205.907C25.8634 205.891 25.56 205.935 25.2739 206.036C24.9878 206.138 24.7247 206.296 24.5001 206.5L22.2111 208.527C22.1761 208.558 22.1481 208.597 22.1131 208.632C21.9696 208.565 21.8226 208.506 21.6721 208.45V205.674C21.6489 205.081 21.397 204.52 20.9693 204.109C20.5416 203.697 19.9712 203.468 19.3778 203.468C18.7844 203.468 18.214 203.697 17.7863 204.109C17.3586 204.52 17.1067 205.081 17.0836 205.674V208.45C16.8714 208.527 16.6635 208.616 16.4605 208.716C16.3961 208.636 16.3259 208.561 16.2506 208.492L13.944 206.5C13.4798 206.13 12.8904 205.954 12.2993 206.01C11.7083 206.065 11.1616 206.347 10.7741 206.796C10.3865 207.246 10.1881 207.828 10.2205 208.421C10.253 209.014 10.5137 209.571 10.948 209.976L13.265 211.974C13.2834 211.99 13.3033 212.004 13.3245 212.016C13.2825 212.114 13.2476 212.216 13.2091 212.317H10.332C9.72707 212.32 9.14771 212.562 8.72025 212.99C8.29279 213.418 8.05189 213.998 8.05005 214.603C8.05005 215.211 8.29147 215.794 8.72129 216.225C9.15112 216.655 9.73422 216.898 10.3425 216.899H13.1915L13.2615 217.088H13.2406L10.948 219.114C10.515 219.523 10.2581 220.085 10.2316 220.68C10.2051 221.276 10.411 221.858 10.8059 222.304C11.2008 222.75 11.7537 223.026 12.3478 223.072C12.9418 223.118 13.5306 222.931 13.9896 222.551L16.2785 220.525L16.3276 220.472C16.5779 220.607 16.8375 220.724 17.1045 220.822V223.573C17.1277 224.166 17.3796 224.727 17.8073 225.138C18.235 225.55 18.8054 225.779 19.3988 225.779C19.9922 225.779 20.5626 225.55 20.9903 225.138C21.418 224.727 21.6699 224.166 21.6931 223.573V220.85C21.8506 220.791 22.0081 220.728 22.1621 220.654L24.409 222.59C24.8718 222.985 25.4728 223.181 26.08 223.134C26.6871 223.087 27.2506 222.8 27.6466 222.338C28.0425 221.875 28.2383 221.274 28.1911 220.667C28.1438 220.059 27.8573 219.496 27.3946 219.1L25.3996 217.378C25.4696 217.221 25.5326 217.06 25.5921 216.899H28.5356C29.1445 216.899 29.7285 216.657 30.1591 216.226C30.5897 215.795 30.8316 215.211 30.8316 214.603C30.8306 213.994 30.5883 213.411 30.1578 212.981C29.7273 212.551 29.1439 212.31 28.5356 212.31Z" fill="#FFE18B"/>
<path d="M52.9657 220.762H49.9942C49.9382 220.608 49.8752 220.461 49.8052 220.314L51.9822 218.389C52.4152 217.98 52.6722 217.418 52.6987 216.823C52.7252 216.228 52.5193 215.646 52.1244 215.199C51.7295 214.753 51.1766 214.478 50.5825 214.432C49.9884 214.386 49.3997 214.572 48.9407 214.952L46.6517 216.979C46.6173 217.012 46.5846 217.047 46.5537 217.084C46.4102 217.017 46.2597 216.958 46.1092 216.902V214.126C46.0861 213.534 45.8342 212.973 45.4065 212.561C44.9788 212.15 44.4084 211.92 43.815 211.92C43.2216 211.92 42.6512 212.15 42.2235 212.561C41.7957 212.973 41.5439 213.534 41.5207 214.126V216.902C41.3107 216.979 41.1042 217.07 40.9012 217.168C40.8358 217.089 40.7657 217.014 40.6912 216.944L38.3742 214.945C38.1482 214.735 37.8819 214.572 37.5914 214.467C37.3009 214.362 36.9922 214.316 36.6837 214.333C36.3752 214.35 36.0733 214.429 35.796 214.565C35.5188 214.701 35.2719 214.892 35.0701 215.126C34.8684 215.36 34.716 215.633 34.622 215.927C34.528 216.221 34.4944 216.532 34.5231 216.839C34.5519 217.147 34.6425 217.445 34.7894 217.717C34.9363 217.989 35.1366 218.228 35.3782 218.421L37.6917 220.419C37.7119 220.435 37.7329 220.449 37.7547 220.461C37.7127 220.559 37.6742 220.661 37.6392 220.762H34.7622C34.1542 220.762 33.5711 221.004 33.1412 221.434C32.7113 221.864 32.4697 222.447 32.4697 223.055C32.4697 223.663 32.7111 224.247 33.141 224.677C33.5708 225.108 34.1539 225.35 34.7622 225.351H37.6112C37.6322 225.414 37.6567 225.48 37.6812 225.543C37.6812 225.543 37.6812 225.543 37.6602 225.543L35.3677 227.57C35.1306 227.766 34.9354 228.008 34.7937 228.282C34.6519 228.555 34.5667 228.854 34.5428 229.161C34.519 229.468 34.5572 229.776 34.6551 230.068C34.7529 230.36 34.9085 230.629 35.1125 230.86C35.3166 231.091 35.5649 231.278 35.8427 231.41C36.1205 231.543 36.4222 231.618 36.7297 231.632C37.0373 231.646 37.3445 231.598 37.633 231.49C37.9215 231.383 38.1855 231.218 38.4092 231.007L40.6982 228.98L40.7472 228.931C40.9973 229.065 41.2557 229.181 41.5207 229.281V232.05C41.5439 232.643 41.7957 233.204 42.2235 233.615C42.6512 234.027 43.2216 234.256 43.815 234.256C44.4084 234.256 44.9788 234.027 45.4065 233.615C45.8342 233.204 46.0861 232.643 46.1092 232.05V229.285C46.2702 229.225 46.4277 229.162 46.5817 229.089L48.8252 231.024C49.0532 231.221 49.3177 231.372 49.6037 231.466C49.8897 231.561 50.1916 231.598 50.492 231.577C50.7925 231.555 51.0857 231.474 51.3549 231.338C51.6241 231.203 51.864 231.016 52.061 230.788C52.2579 230.56 52.408 230.296 52.5028 230.01C52.5975 229.724 52.6349 229.422 52.613 229.121C52.5911 228.821 52.5102 228.528 52.3749 228.259C52.2397 227.989 52.0527 227.749 51.8247 227.552L49.8262 225.83C49.8997 225.673 49.9627 225.512 50.0222 225.351H52.9657C53.5741 225.35 54.1572 225.108 54.587 224.677C55.0168 224.247 55.2582 223.663 55.2582 223.055C55.2582 222.754 55.1989 222.456 55.0837 222.178C54.9685 221.9 54.7996 221.647 54.5868 221.434C54.3739 221.221 54.1212 221.052 53.843 220.937C53.5649 220.822 53.2668 220.762 52.9657 220.762Z" fill="#FFE18B"/>
<path d="M52.9657 220.762H49.9942C49.9382 220.608 49.8752 220.461 49.8052 220.314L51.9822 218.389C52.4152 217.98 52.6722 217.418 52.6987 216.823C52.7252 216.228 52.5193 215.646 52.1244 215.199C51.7295 214.753 51.1766 214.478 50.5825 214.432C49.9884 214.386 49.3997 214.572 48.9407 214.952L46.6517 216.979C46.6173 217.012 46.5846 217.047 46.5537 217.084C46.4102 217.017 46.2597 216.958 46.1092 216.902V214.126C46.0861 213.534 45.8342 212.973 45.4065 212.561C44.9788 212.15 44.4084 211.92 43.815 211.92C43.2216 211.92 42.6512 212.15 42.2235 212.561C41.7957 212.973 41.5439 213.534 41.5207 214.126V216.902C41.3107 216.979 41.1042 217.07 40.9012 217.168C40.8358 217.089 40.7657 217.014 40.6912 216.944L38.3742 214.945C38.1482 214.735 37.8819 214.572 37.5914 214.467C37.3009 214.362 36.9922 214.316 36.6837 214.333C36.3752 214.35 36.0733 214.429 35.796 214.565C35.5188 214.701 35.2719 214.892 35.0701 215.126C34.8684 215.36 34.716 215.633 34.622 215.927C34.528 216.221 34.4944 216.532 34.5231 216.839C34.5519 217.147 34.6425 217.445 34.7894 217.717C34.9363 217.989 35.1366 218.228 35.3782 218.421L37.6917 220.419C37.7119 220.435 37.7329 220.449 37.7547 220.461C37.7127 220.559 37.6742 220.661 37.6392 220.762H34.7622C34.1542 220.762 33.5711 221.004 33.1412 221.434C32.7113 221.864 32.4697 222.447 32.4697 223.055C32.4697 223.663 32.7111 224.247 33.141 224.677C33.5708 225.108 34.1539 225.35 34.7622 225.351H37.6112C37.6322 225.414 37.6567 225.48 37.6812 225.543C37.6812 225.543 37.6812 225.543 37.6602 225.543L35.3677 227.57C35.1306 227.766 34.9354 228.008 34.7937 228.282C34.6519 228.555 34.5667 228.854 34.5428 229.161C34.519 229.468 34.5572 229.776 34.6551 230.068C34.7529 230.36 34.9085 230.629 35.1125 230.86C35.3166 231.091 35.5649 231.278 35.8427 231.41C36.1205 231.543 36.4222 231.618 36.7297 231.632C37.0373 231.646 37.3445 231.598 37.633 231.49C37.9215 231.383 38.1855 231.218 38.4092 231.007L40.6982 228.98L40.7472 228.931C40.9973 229.065 41.2557 229.181 41.5207 229.281V232.05C41.5439 232.643 41.7957 233.204 42.2235 233.615C42.6512 234.027 43.2216 234.256 43.815 234.256C44.4084 234.256 44.9788 234.027 45.4065 233.615C45.8342 233.204 46.0861 232.643 46.1092 232.05V229.285C46.2702 229.225 46.4277 229.162 46.5817 229.089L48.8252 231.024C49.0532 231.221 49.3177 231.372 49.6037 231.466C49.8897 231.561 50.1916 231.598 50.492 231.577C50.7925 231.555 51.0857 231.474 51.3549 231.338C51.6241 231.203 51.864 231.016 52.061 230.788C52.2579 230.56 52.408 230.296 52.5028 230.01C52.5975 229.724 52.6349 229.422 52.613 229.121C52.5911 228.821 52.5102 228.528 52.3749 228.259C52.2397 227.989 52.0527 227.749 51.8247 227.552L49.8262 225.83C49.8997 225.673 49.9627 225.512 50.0222 225.351H52.9657C53.5741 225.35 54.1572 225.108 54.587 224.677C55.0168 224.247 55.2582 223.663 55.2582 223.055C55.2582 222.754 55.1989 222.456 55.0837 222.178C54.9685 221.9 54.7996 221.647 54.5868 221.434C54.3739 221.221 54.1212 221.052 53.843 220.937C53.5649 220.822 53.2668 220.762 52.9657 220.762Z" fill="#FFE18B"/>
<path d="M52.9657 220.762H49.9942C49.9382 220.608 49.8752 220.461 49.8052 220.314L51.9822 218.389C52.4152 217.98 52.6722 217.418 52.6987 216.823C52.7252 216.228 52.5193 215.646 52.1244 215.199C51.7295 214.753 51.1766 214.478 50.5825 214.432C49.9884 214.386 49.3997 214.572 48.9407 214.952L46.6517 216.979C46.6173 217.012 46.5846 217.047 46.5537 217.084C46.4102 217.017 46.2597 216.958 46.1092 216.902V214.126C46.0861 213.534 45.8342 212.973 45.4065 212.561C44.9788 212.15 44.4084 211.92 43.815 211.92C43.2216 211.92 42.6512 212.15 42.2235 212.561C41.7957 212.973 41.5439 213.534 41.5207 214.126V216.902C41.3107 216.979 41.1042 217.07 40.9012 217.168C40.8358 217.089 40.7657 217.014 40.6912 216.944L38.3742 214.945C38.1482 214.735 37.8819 214.572 37.5914 214.467C37.3009 214.362 36.9922 214.316 36.6837 214.333C36.3752 214.35 36.0733 214.429 35.796 214.565C35.5188 214.701 35.2719 214.892 35.0701 215.126C34.8684 215.36 34.716 215.633 34.622 215.927C34.528 216.221 34.4944 216.532 34.5231 216.839C34.5519 217.147 34.6425 217.445 34.7894 217.717C34.9363 217.989 35.1366 218.228 35.3782 218.421L37.6917 220.419C37.7119 220.435 37.7329 220.449 37.7547 220.461C37.7127 220.559 37.6742 220.661 37.6392 220.762H34.7622C34.1542 220.762 33.5711 221.004 33.1412 221.434C32.7113 221.864 32.4697 222.447 32.4697 223.055C32.4697 223.663 32.7111 224.247 33.141 224.677C33.5708 225.108 34.1539 225.35 34.7622 225.351H37.6112C37.6322 225.414 37.6567 225.48 37.6812 225.543C37.6812 225.543 37.6812 225.543 37.6602 225.543L35.3677 227.57C35.1306 227.766 34.9354 228.008 34.7937 228.282C34.6519 228.555 34.5667 228.854 34.5428 229.161C34.519 229.468 34.5572 229.776 34.6551 230.068C34.7529 230.36 34.9085 230.629 35.1125 230.86C35.3166 231.091 35.5649 231.278 35.8427 231.41C36.1205 231.543 36.4222 231.618 36.7297 231.632C37.0373 231.646 37.3445 231.598 37.633 231.49C37.9215 231.383 38.1855 231.218 38.4092 231.007L40.6982 228.98L40.7472 228.931C40.9973 229.065 41.2557 229.181 41.5207 229.281V232.05C41.5439 232.643 41.7957 233.204 42.2235 233.615C42.6512 234.027 43.2216 234.256 43.815 234.256C44.4084 234.256 44.9788 234.027 45.4065 233.615C45.8342 233.204 46.0861 232.643 46.1092 232.05V229.285C46.2702 229.225 46.4277 229.162 46.5817 229.089L48.8252 231.024C49.0532 231.221 49.3177 231.372 49.6037 231.466C49.8897 231.561 50.1916 231.598 50.492 231.577C50.7925 231.555 51.0857 231.474 51.3549 231.338C51.6241 231.203 51.864 231.016 52.061 230.788C52.2579 230.56 52.408 230.296 52.5028 230.01C52.5975 229.724 52.6349 229.422 52.613 229.121C52.5911 228.821 52.5102 228.528 52.3749 228.259C52.2397 227.989 52.0527 227.749 51.8247 227.552L49.8262 225.83C49.8997 225.673 49.9627 225.512 50.0222 225.351H52.9657C53.5741 225.35 54.1572 225.108 54.587 224.677C55.0168 224.247 55.2582 223.663 55.2582 223.055C55.2582 222.754 55.1989 222.456 55.0837 222.178C54.9685 221.9 54.7996 221.647 54.5868 221.434C54.3739 221.221 54.1212 221.052 53.843 220.937C53.5649 220.822 53.2668 220.762 52.9657 220.762Z" fill="#FFE18B"/>
<path d="M52.9657 220.762H49.9942C49.9382 220.608 49.8752 220.461 49.8052 220.314L51.9822 218.389C52.4152 217.98 52.6722 217.418 52.6987 216.823C52.7252 216.228 52.5193 215.646 52.1244 215.199C51.7295 214.753 51.1766 214.478 50.5825 214.432C49.9884 214.386 49.3997 214.572 48.9407 214.952L46.6517 216.979C46.6173 217.012 46.5846 217.047 46.5537 217.084C46.4102 217.017 46.2597 216.958 46.1092 216.902V214.126C46.0861 213.534 45.8342 212.973 45.4065 212.561C44.9788 212.15 44.4084 211.92 43.815 211.92C43.2216 211.92 42.6512 212.15 42.2235 212.561C41.7957 212.973 41.5439 213.534 41.5207 214.126V216.902C41.3107 216.979 41.1042 217.07 40.9012 217.168C40.8358 217.089 40.7657 217.014 40.6912 216.944L38.3742 214.945C38.1482 214.735 37.8819 214.572 37.5914 214.467C37.3009 214.362 36.9922 214.316 36.6837 214.333C36.3752 214.35 36.0733 214.429 35.796 214.565C35.5188 214.701 35.2719 214.892 35.0701 215.126C34.8684 215.36 34.716 215.633 34.622 215.927C34.528 216.221 34.4944 216.532 34.5231 216.839C34.5519 217.147 34.6425 217.445 34.7894 217.717C34.9363 217.989 35.1366 218.228 35.3782 218.421L37.6917 220.419C37.7119 220.435 37.7329 220.449 37.7547 220.461C37.7127 220.559 37.6742 220.661 37.6392 220.762H34.7622C34.1542 220.762 33.5711 221.004 33.1412 221.434C32.7113 221.864 32.4697 222.447 32.4697 223.055C32.4697 223.663 32.7111 224.247 33.141 224.677C33.5708 225.108 34.1539 225.35 34.7622 225.351H37.6112C37.6322 225.414 37.6567 225.48 37.6812 225.543C37.6812 225.543 37.6812 225.543 37.6602 225.543L35.3677 227.57C35.1306 227.766 34.9354 228.008 34.7937 228.282C34.6519 228.555 34.5667 228.854 34.5428 229.161C34.519 229.468 34.5572 229.776 34.6551 230.068C34.7529 230.36 34.9085 230.629 35.1125 230.86C35.3166 231.091 35.5649 231.278 35.8427 231.41C36.1205 231.543 36.4222 231.618 36.7297 231.632C37.0373 231.646 37.3445 231.598 37.633 231.49C37.9215 231.383 38.1855 231.218 38.4092 231.007L40.6982 228.98L40.7472 228.931C40.9973 229.065 41.2557 229.181 41.5207 229.281V232.05C41.5439 232.643 41.7957 233.204 42.2235 233.615C42.6512 234.027 43.2216 234.256 43.815 234.256C44.4084 234.256 44.9788 234.027 45.4065 233.615C45.8342 233.204 46.0861 232.643 46.1092 232.05V229.285C46.2702 229.225 46.4277 229.162 46.5817 229.089L48.8252 231.024C49.0532 231.221 49.3177 231.372 49.6037 231.466C49.8897 231.561 50.1916 231.598 50.492 231.577C50.7925 231.555 51.0857 231.474 51.3549 231.338C51.6241 231.203 51.864 231.016 52.061 230.788C52.2579 230.56 52.408 230.296 52.5028 230.01C52.5975 229.724 52.6349 229.422 52.613 229.121C52.5911 228.821 52.5102 228.528 52.3749 228.259C52.2397 227.989 52.0527 227.749 51.8247 227.552L49.8262 225.83C49.8997 225.673 49.9627 225.512 50.0222 225.351H52.9657C53.5741 225.35 54.1572 225.108 54.587 224.677C55.0168 224.247 55.2582 223.663 55.2582 223.055C55.2582 222.754 55.1989 222.456 55.0837 222.178C54.9685 221.9 54.7996 221.647 54.5868 221.434C54.3739 221.221 54.1212 221.052 53.843 220.937C53.5649 220.822 53.2668 220.762 52.9657 220.762Z" fill="#FFE18B"/>
<path d="M52.9657 220.762H49.9942C49.9382 220.608 49.8752 220.461 49.8052 220.314L51.9822 218.389C52.4152 217.98 52.6722 217.418 52.6987 216.823C52.7252 216.228 52.5193 215.646 52.1244 215.199C51.7295 214.753 51.1766 214.478 50.5825 214.432C49.9884 214.386 49.3997 214.572 48.9407 214.952L46.6517 216.979C46.6173 217.012 46.5846 217.047 46.5537 217.084C46.4102 217.017 46.2597 216.958 46.1092 216.902V214.126C46.0861 213.534 45.8342 212.973 45.4065 212.561C44.9788 212.15 44.4084 211.92 43.815 211.92C43.2216 211.92 42.6512 212.15 42.2235 212.561C41.7957 212.973 41.5439 213.534 41.5207 214.126V216.902C41.3107 216.979 41.1042 217.07 40.9012 217.168C40.8358 217.089 40.7657 217.014 40.6912 216.944L38.3742 214.945C38.1482 214.735 37.8819 214.572 37.5914 214.467C37.3009 214.362 36.9922 214.316 36.6837 214.333C36.3752 214.35 36.0733 214.429 35.796 214.565C35.5188 214.701 35.2719 214.892 35.0701 215.126C34.8684 215.36 34.716 215.633 34.622 215.927C34.528 216.221 34.4944 216.532 34.5231 216.839C34.5519 217.147 34.6425 217.445 34.7894 217.717C34.9363 217.989 35.1366 218.228 35.3782 218.421L37.6917 220.419C37.7119 220.435 37.7329 220.449 37.7547 220.461C37.7127 220.559 37.6742 220.661 37.6392 220.762H34.7622C34.1542 220.762 33.5711 221.004 33.1412 221.434C32.7113 221.864 32.4697 222.447 32.4697 223.055C32.4697 223.663 32.7111 224.247 33.141 224.677C33.5708 225.108 34.1539 225.35 34.7622 225.351H37.6112C37.6322 225.414 37.6567 225.48 37.6812 225.543C37.6812 225.543 37.6812 225.543 37.6602 225.543L35.3677 227.57C35.1306 227.766 34.9354 228.008 34.7937 228.282C34.6519 228.555 34.5667 228.854 34.5428 229.161C34.519 229.468 34.5572 229.776 34.6551 230.068C34.7529 230.36 34.9085 230.629 35.1125 230.86C35.3166 231.091 35.5649 231.278 35.8427 231.41C36.1205 231.543 36.4222 231.618 36.7297 231.632C37.0373 231.646 37.3445 231.598 37.633 231.49C37.9215 231.383 38.1855 231.218 38.4092 231.007L40.6982 228.98L40.7472 228.931C40.9973 229.065 41.2557 229.181 41.5207 229.281V232.05C41.5439 232.643 41.7957 233.204 42.2235 233.615C42.6512 234.027 43.2216 234.256 43.815 234.256C44.4084 234.256 44.9788 234.027 45.4065 233.615C45.8342 233.204 46.0861 232.643 46.1092 232.05V229.285C46.2702 229.225 46.4277 229.162 46.5817 229.089L48.8252 231.024C49.0532 231.221 49.3177 231.372 49.6037 231.466C49.8897 231.561 50.1916 231.598 50.492 231.577C50.7925 231.555 51.0857 231.474 51.3549 231.338C51.6241 231.203 51.864 231.016 52.061 230.788C52.2579 230.56 52.408 230.296 52.5028 230.01C52.5975 229.724 52.6349 229.422 52.613 229.121C52.5911 228.821 52.5102 228.528 52.3749 228.259C52.2397 227.989 52.0527 227.749 51.8247 227.552L49.8262 225.83C49.8997 225.673 49.9627 225.512 50.0222 225.351H52.9657C53.5741 225.35 54.1572 225.108 54.587 224.677C55.0168 224.247 55.2582 223.663 55.2582 223.055C55.2582 222.754 55.1989 222.456 55.0837 222.178C54.9685 221.9 54.7996 221.647 54.5868 221.434C54.3739 221.221 54.1212 221.052 53.843 220.937C53.5649 220.822 53.2668 220.762 52.9657 220.762Z" fill="#FFE18B"/>
<path d="M52.9657 220.762H49.9942C49.9382 220.608 49.8752 220.461 49.8052 220.314L51.9822 218.389C52.4152 217.98 52.6722 217.418 52.6987 216.823C52.7252 216.228 52.5193 215.646 52.1244 215.199C51.7295 214.753 51.1766 214.478 50.5825 214.432C49.9884 214.386 49.3997 214.572 48.9407 214.952L46.6517 216.979C46.6173 217.012 46.5846 217.047 46.5537 217.084C46.4102 217.017 46.2597 216.958 46.1092 216.902V214.126C46.0861 213.534 45.8342 212.973 45.4065 212.561C44.9788 212.15 44.4084 211.92 43.815 211.92C43.2216 211.92 42.6512 212.15 42.2235 212.561C41.7957 212.973 41.5439 213.534 41.5207 214.126V216.902C41.3107 216.979 41.1042 217.07 40.9012 217.168C40.8358 217.089 40.7657 217.014 40.6912 216.944L38.3742 214.945C38.1482 214.735 37.8819 214.572 37.5914 214.467C37.3009 214.362 36.9922 214.316 36.6837 214.333C36.3752 214.35 36.0733 214.429 35.796 214.565C35.5188 214.701 35.2719 214.892 35.0701 215.126C34.8684 215.36 34.716 215.633 34.622 215.927C34.528 216.221 34.4944 216.532 34.5231 216.839C34.5519 217.147 34.6425 217.445 34.7894 217.717C34.9363 217.989 35.1366 218.228 35.3782 218.421L37.6917 220.419C37.7119 220.435 37.7329 220.449 37.7547 220.461C37.7127 220.559 37.6742 220.661 37.6392 220.762H34.7622C34.1542 220.762 33.5711 221.004 33.1412 221.434C32.7113 221.864 32.4697 222.447 32.4697 223.055C32.4697 223.663 32.7111 224.247 33.141 224.677C33.5708 225.108 34.1539 225.35 34.7622 225.351H37.6112C37.6322 225.414 37.6567 225.48 37.6812 225.543C37.6812 225.543 37.6812 225.543 37.6602 225.543L35.3677 227.57C35.1306 227.766 34.9354 228.008 34.7937 228.282C34.6519 228.555 34.5667 228.854 34.5428 229.161C34.519 229.468 34.5572 229.776 34.6551 230.068C34.7529 230.36 34.9085 230.629 35.1125 230.86C35.3166 231.091 35.5649 231.278 35.8427 231.41C36.1205 231.543 36.4222 231.618 36.7297 231.632C37.0373 231.646 37.3445 231.598 37.633 231.49C37.9215 231.383 38.1855 231.218 38.4092 231.007L40.6982 228.98L40.7472 228.931C40.9973 229.065 41.2557 229.181 41.5207 229.281V232.05C41.5439 232.643 41.7957 233.204 42.2235 233.615C42.6512 234.027 43.2216 234.256 43.815 234.256C44.4084 234.256 44.9788 234.027 45.4065 233.615C45.8342 233.204 46.0861 232.643 46.1092 232.05V229.285C46.2702 229.225 46.4277 229.162 46.5817 229.089L48.8252 231.024C49.0532 231.221 49.3177 231.372 49.6037 231.466C49.8897 231.561 50.1916 231.598 50.492 231.577C50.7925 231.555 51.0857 231.474 51.3549 231.338C51.6241 231.203 51.864 231.016 52.061 230.788C52.2579 230.56 52.408 230.296 52.5028 230.01C52.5975 229.724 52.6349 229.422 52.613 229.121C52.5911 228.821 52.5102 228.528 52.3749 228.259C52.2397 227.989 52.0527 227.749 51.8247 227.552L49.8262 225.83C49.8997 225.673 49.9627 225.512 50.0222 225.351H52.9657C53.5741 225.35 54.1572 225.108 54.587 224.677C55.0168 224.247 55.2582 223.663 55.2582 223.055C55.2582 222.754 55.1989 222.456 55.0837 222.178C54.9685 221.9 54.7996 221.647 54.5868 221.434C54.3739 221.221 54.1212 221.052 53.843 220.937C53.5649 220.822 53.2668 220.762 52.9657 220.762Z" fill="#FFE18B"/>
<path d="M52.9657 220.762H49.9942C49.9382 220.608 49.8752 220.461 49.8052 220.314L51.9822 218.389C52.4152 217.98 52.6722 217.418 52.6987 216.823C52.7252 216.228 52.5193 215.646 52.1244 215.199C51.7295 214.753 51.1766 214.478 50.5825 214.432C49.9884 214.386 49.3997 214.572 48.9407 214.952L46.6517 216.979C46.6173 217.012 46.5846 217.047 46.5537 217.084C46.4102 217.017 46.2597 216.958 46.1092 216.902V214.126C46.0861 213.534 45.8342 212.973 45.4065 212.561C44.9788 212.15 44.4084 211.92 43.815 211.92C43.2216 211.92 42.6512 212.15 42.2235 212.561C41.7957 212.973 41.5439 213.534 41.5207 214.126V216.902C41.3107 216.979 41.1042 217.07 40.9012 217.168C40.8358 217.089 40.7657 217.014 40.6912 216.944L38.3742 214.945C38.1482 214.735 37.8819 214.572 37.5914 214.467C37.3009 214.362 36.9922 214.316 36.6837 214.333C36.3752 214.35 36.0733 214.429 35.796 214.565C35.5188 214.701 35.2719 214.892 35.0701 215.126C34.8684 215.36 34.716 215.633 34.622 215.927C34.528 216.221 34.4944 216.532 34.5231 216.839C34.5519 217.147 34.6425 217.445 34.7894 217.717C34.9363 217.989 35.1366 218.228 35.3782 218.421L37.6917 220.419C37.7119 220.435 37.7329 220.449 37.7547 220.461C37.7127 220.559 37.6742 220.661 37.6392 220.762H34.7622C34.1542 220.762 33.5711 221.004 33.1412 221.434C32.7113 221.864 32.4697 222.447 32.4697 223.055C32.4697 223.663 32.7111 224.247 33.141 224.677C33.5708 225.108 34.1539 225.35 34.7622 225.351H37.6112C37.6322 225.414 37.6567 225.48 37.6812 225.543C37.6812 225.543 37.6812 225.543 37.6602 225.543L35.3677 227.57C35.1306 227.766 34.9354 228.008 34.7937 228.282C34.6519 228.555 34.5667 228.854 34.5428 229.161C34.519 229.468 34.5572 229.776 34.6551 230.068C34.7529 230.36 34.9085 230.629 35.1125 230.86C35.3166 231.091 35.5649 231.278 35.8427 231.41C36.1205 231.543 36.4222 231.618 36.7297 231.632C37.0373 231.646 37.3445 231.598 37.633 231.49C37.9215 231.383 38.1855 231.218 38.4092 231.007L40.6982 228.98L40.7472 228.931C40.9973 229.065 41.2557 229.181 41.5207 229.281V232.05C41.5439 232.643 41.7957 233.204 42.2235 233.615C42.6512 234.027 43.2216 234.256 43.815 234.256C44.4084 234.256 44.9788 234.027 45.4065 233.615C45.8342 233.204 46.0861 232.643 46.1092 232.05V229.285C46.2702 229.225 46.4277 229.162 46.5817 229.089L48.8252 231.024C49.0532 231.221 49.3177 231.372 49.6037 231.466C49.8897 231.561 50.1916 231.598 50.492 231.577C50.7925 231.555 51.0857 231.474 51.3549 231.338C51.6241 231.203 51.864 231.016 52.061 230.788C52.2579 230.56 52.408 230.296 52.5028 230.01C52.5975 229.724 52.6349 229.422 52.613 229.121C52.5911 228.821 52.5102 228.528 52.3749 228.259C52.2397 227.989 52.0527 227.749 51.8247 227.552L49.8262 225.83C49.8997 225.673 49.9627 225.512 50.0222 225.351H52.9657C53.5741 225.35 54.1572 225.108 54.587 224.677C55.0168 224.247 55.2582 223.663 55.2582 223.055C55.2582 222.754 55.1989 222.456 55.0837 222.178C54.9685 221.9 54.7996 221.647 54.5868 221.434C54.3739 221.221 54.1212 221.052 53.843 220.937C53.5649 220.822 53.2668 220.762 52.9657 220.762Z" fill="#FFE18B"/>
<path d="M19.4357 217.665C21.1135 217.665 22.4737 216.305 22.4737 214.627C22.4737 212.949 21.1135 211.589 19.4357 211.589C17.7579 211.589 16.3977 212.949 16.3977 214.627C16.3977 216.305 17.7579 217.665 19.4357 217.665Z" fill="white"/>
<path d="M43.8659 226.282C45.5437 226.282 46.9039 224.922 46.9039 223.244C46.9039 221.566 45.5437 220.206 43.8659 220.206C42.188 220.206 40.8279 221.566 40.8279 223.244C40.8279 224.922 42.188 226.282 43.8659 226.282Z" fill="white"/>
<path d="M47.8553 278.162C46.7173 278.162 45.6048 277.825 44.6586 277.193C43.7123 276.561 42.9748 275.662 42.5393 274.61C42.1038 273.559 41.9899 272.402 42.2119 271.286C42.4339 270.17 42.9819 269.145 43.7866 268.34C44.5913 267.535 45.6166 266.987 46.7328 266.765C47.8489 266.543 49.0059 266.657 50.0573 267.092C51.1087 267.528 52.0073 268.265 52.6396 269.212C53.2719 270.158 53.6093 271.27 53.6093 272.408C53.6075 273.934 53.0006 275.396 51.922 276.475C50.8433 277.554 49.3808 278.161 47.8553 278.162ZM47.8553 268.054C46.9942 268.054 46.1524 268.31 45.4364 268.788C44.7204 269.267 44.1623 269.947 43.8327 270.742C43.5032 271.538 43.417 272.413 43.585 273.258C43.753 274.102 44.1677 274.878 44.7766 275.487C45.3855 276.096 46.1613 276.511 47.0059 276.679C47.8505 276.847 48.7259 276.761 49.5215 276.431C50.3171 276.101 50.9971 275.543 51.4755 274.827C51.954 274.111 52.2093 273.27 52.2093 272.408C52.2065 271.255 51.7469 270.149 50.931 269.333C50.1151 268.517 49.0092 268.057 47.8553 268.054Z" fill="#262626"/>
<path d="M38.7905 287.735C38.002 287.735 37.2313 287.501 36.5757 287.063C35.9201 286.625 35.4091 286.002 35.1074 285.274C34.8057 284.546 34.7267 283.744 34.8806 282.971C35.0344 282.197 35.4141 281.487 35.9716 280.93C36.5291 280.372 37.2394 279.992 38.0127 279.839C38.786 279.685 39.5876 279.764 40.316 280.065C41.0445 280.367 41.6671 280.878 42.1051 281.534C42.5432 282.189 42.777 282.96 42.777 283.748C42.776 284.805 42.3557 285.819 41.6083 286.566C40.8609 287.314 39.8475 287.734 38.7905 287.735ZM38.7905 281.162C38.2789 281.162 37.7788 281.314 37.3535 281.598C36.9281 281.882 36.5966 282.286 36.4008 282.759C36.2051 283.231 36.1539 283.751 36.2537 284.253C36.3535 284.755 36.5998 285.216 36.9615 285.577C37.3233 285.939 37.7841 286.185 38.2859 286.285C38.7876 286.385 39.3076 286.334 39.7803 286.138C40.2529 285.942 40.6568 285.611 40.9411 285.185C41.2253 284.76 41.377 284.26 41.377 283.748C41.376 283.063 41.1032 282.405 40.6184 281.921C40.1335 281.436 39.4762 281.163 38.7905 281.162Z" fill="#262626"/>
</svg>
