<svg width="714" height="715" viewBox="0 0 714 715" fill="none" xmlns="http://www.w3.org/2000/svg">
<path d="M483.314 95.9891L126.378 252.398C95.2262 266.05 90.5281 308.311 117.931 328.46L431.834 559.404C459.231 579.56 498.179 562.495 501.928 528.702L544.961 141.357C548.716 107.534 514.466 82.3374 483.314 95.9891Z" fill="#FFF1C9"/>
<path d="M599.988 576.675H78.3186C77.9399 576.675 77.5767 576.525 77.3089 576.257C77.0411 575.989 76.8906 575.626 76.8906 575.247C76.8906 574.869 77.0411 574.505 77.3089 574.238C77.5767 573.97 77.9399 573.819 78.3186 573.819H599.988C600.367 573.819 600.73 573.97 600.998 574.238C601.266 574.505 601.416 574.869 601.416 575.247C601.416 575.626 601.266 575.989 600.998 576.257C600.73 576.525 600.367 576.675 599.988 576.675Z" fill="#262626"/>
<path d="M404.288 292.782L422.095 233.934C422.344 233.112 422.77 232.356 423.344 231.718C423.918 231.08 424.626 230.577 425.417 230.244C426.208 229.912 427.063 229.757 427.92 229.793C428.778 229.828 429.617 230.053 430.378 230.45L449.599 240.446C450.43 240.878 451.144 241.504 451.682 242.271C452.22 243.039 452.565 243.924 452.688 244.853C452.812 245.781 452.71 246.726 452.39 247.607C452.071 248.488 451.545 249.279 450.855 249.913L404.288 292.782Z" fill="#D3B970"/>
<path d="M399.726 290.476L450.534 258.845C451.323 258.355 452.212 258.048 453.136 257.948C454.059 257.848 454.993 257.956 455.869 258.266C456.745 258.576 457.54 259.079 458.194 259.738C458.849 260.397 459.347 261.195 459.652 262.073L466.392 281.586C466.712 282.513 466.807 283.502 466.67 284.473C466.533 285.443 466.168 286.367 465.604 287.169C465.04 287.971 464.294 288.627 463.426 289.084C462.559 289.541 461.596 289.785 460.616 289.797L399.726 290.476Z" fill="#D3B970"/>
<path d="M327.883 399.368C351.539 399.368 370.716 380.191 370.716 356.535C370.716 332.879 351.539 313.702 327.883 313.702C304.227 313.702 285.05 332.879 285.05 356.535C285.05 380.191 304.227 399.368 327.883 399.368Z" fill="#262626"/>
<path d="M235.699 170.338H67.4944C56.808 170.338 48.145 179.001 48.145 189.687V264.157C48.145 274.844 56.808 283.507 67.4944 283.507H235.699C246.385 283.507 255.048 274.844 255.048 264.157V189.687C255.048 179.001 246.385 170.338 235.699 170.338Z" fill="white"/>
<path d="M235.699 284.935H67.5016C61.9909 284.929 56.7076 282.738 52.811 278.841C48.9143 274.944 46.7227 269.661 46.717 264.15V189.694C46.7227 184.184 48.9143 178.9 52.811 175.004C56.7076 171.107 61.9909 168.916 67.5016 168.91H235.699C241.208 168.917 246.49 171.11 250.385 175.006C254.28 178.903 256.47 184.185 256.476 189.694V264.15C256.47 269.66 254.28 274.942 250.385 278.838C246.49 282.735 241.208 284.927 235.699 284.935ZM67.5016 171.766C62.7478 171.77 58.1898 173.66 54.8284 177.021C51.4669 180.383 49.5768 184.941 49.573 189.694V264.15C49.5768 268.904 51.4669 273.462 54.8284 276.824C58.1898 280.185 62.7478 282.075 67.5016 282.079H235.699C240.451 282.073 245.007 280.182 248.367 276.821C251.727 273.46 253.616 268.903 253.62 264.15V189.694C253.616 184.942 251.727 180.385 248.367 177.024C245.007 173.663 240.451 171.772 235.699 171.766H67.5016Z" fill="#262626"/>
<path d="M85.9085 208.523C85.5359 208.523 85.1779 208.377 84.9111 208.117C84.6443 207.857 84.4898 207.503 84.4805 207.13C84.3448 201.318 86.494 197.848 88.3289 195.956C90.3531 193.816 93.1388 192.559 96.083 192.458H96.1615C99.0049 192.518 101.71 193.698 103.687 195.742C105.558 197.62 107.778 201.118 107.707 207.109C107.707 207.488 107.556 207.851 107.289 208.119C107.021 208.386 106.658 208.537 106.279 208.537C105.9 208.537 105.537 208.386 105.269 208.119C105.001 207.851 104.851 207.488 104.851 207.109C104.908 202.111 103.152 199.255 101.666 197.791C100.215 196.294 98.2386 195.419 96.1544 195.349H96.1044C93.9305 195.446 91.8807 196.389 90.3924 197.977C88.3147 200.119 87.2579 203.275 87.3508 207.095C87.3555 207.282 87.3232 207.469 87.2558 207.644C87.1884 207.819 87.0872 207.979 86.9579 208.115C86.8286 208.251 86.6738 208.36 86.5023 208.436C86.3308 208.512 86.146 208.554 85.9585 208.558L85.9085 208.523Z" fill="#262626"/>
<path d="M116.61 263.565H75.7839C74.7841 263.565 73.7958 263.351 72.8854 262.937C71.9749 262.524 71.1633 261.921 70.5048 261.168C69.8463 260.416 69.3562 259.532 69.0673 258.574C68.7784 257.617 68.6974 256.609 68.8296 255.618L74.5416 213.178C74.7666 211.493 75.5958 209.948 76.875 208.829C78.1543 207.71 79.7964 207.094 81.496 207.095H109.956C111.628 207.095 113.245 207.692 114.516 208.778C115.787 209.865 116.629 211.369 116.889 213.021L123.522 255.468C123.68 256.467 123.619 257.489 123.345 258.463C123.07 259.436 122.588 260.339 121.931 261.108C121.274 261.878 120.458 262.496 119.54 262.92C118.621 263.344 117.622 263.564 116.61 263.565Z" fill="#FFE18B"/>
<path d="M227.53 200.619H150.169C147.097 200.619 144.606 203.109 144.606 206.181V210.5C144.606 213.572 147.097 216.062 150.169 216.062H227.53C230.602 216.062 233.092 213.572 233.092 210.5V206.181C233.092 203.109 230.602 200.619 227.53 200.619Z" fill="#FFBB45"/>
<path d="M229.401 235.612H148.305C147.926 235.612 147.563 235.461 147.295 235.194C147.027 234.926 146.877 234.563 146.877 234.184C146.877 233.805 147.027 233.442 147.295 233.174C147.563 232.906 147.926 232.756 148.305 232.756H229.401C229.78 232.756 230.143 232.906 230.411 233.174C230.679 233.442 230.829 233.805 230.829 234.184C230.829 234.563 230.679 234.926 230.411 235.194C230.143 235.461 229.78 235.612 229.401 235.612Z" fill="#262626"/>
<path d="M217.984 253.962H148.305C147.926 253.962 147.563 253.811 147.295 253.543C147.027 253.276 146.877 252.912 146.877 252.534C146.877 252.155 147.027 251.792 147.295 251.524C147.563 251.256 147.926 251.106 148.305 251.106H217.984C218.363 251.106 218.726 251.256 218.994 251.524C219.262 251.792 219.412 252.155 219.412 252.534C219.412 252.912 219.262 253.276 218.994 253.543C218.726 253.811 218.363 253.962 217.984 253.962Z" fill="#262626"/>
<path d="M455.975 436.324C480.707 436.324 500.757 416.403 500.757 391.828C500.757 367.253 480.707 347.331 455.975 347.331C431.242 347.331 411.193 367.253 411.193 391.828C411.193 416.403 431.242 436.324 455.975 436.324Z" fill="#262626"/>
<path d="M411.193 376.291C435.925 376.291 455.975 356.37 455.975 331.795C455.975 307.22 435.925 287.298 411.193 287.298C386.46 287.298 366.411 307.22 366.411 331.795C366.411 356.37 386.46 376.291 411.193 376.291Z" fill="#262626"/>
<path d="M371.851 324.648H344.633C337.933 324.648 331.299 323.328 325.109 320.764C318.919 318.199 313.295 314.441 308.558 309.703C303.82 304.965 300.063 299.34 297.499 293.15C294.936 286.96 293.617 280.325 293.618 273.625V238.811C293.628 230.807 296.814 223.135 302.477 217.48C308.14 211.825 315.817 208.649 323.82 208.651H360.57C373.023 208.651 384.965 213.598 393.77 222.403C402.576 231.209 407.523 243.151 407.523 255.604V289.041C407.519 293.721 406.593 298.355 404.798 302.677C403.004 307 400.375 310.926 397.062 314.233C393.75 317.539 389.818 320.161 385.493 321.948C381.167 323.735 376.531 324.652 371.851 324.648Z" fill="#262626"/>
<path d="M304.878 220.575C304.878 220.575 288.727 222.96 284.486 257.118C283.985 261.29 282.184 265.199 279.338 268.292L276.739 271.105C276.084 271.813 275.711 272.737 275.691 273.701C275.672 274.666 276.006 275.604 276.632 276.338L280.152 280.48L278.374 302.328C278.374 302.328 274.804 325.612 302.215 324.89H319.651V349.045H374.45V307.526C374.45 307.526 386.938 305.384 389.209 293.089C389.782 290.016 389.652 286.852 388.829 283.836C388.005 280.82 386.509 278.03 384.453 275.674C380.362 271.041 373.151 267.106 361.277 272.647C361.284 272.647 314.117 282.115 304.878 220.575Z" fill="white"/>
<path d="M370.716 298.365C369.586 298.365 368.482 298.03 367.542 297.403C366.603 296.775 365.871 295.883 365.439 294.839C365.006 293.795 364.893 292.647 365.114 291.539C365.334 290.431 365.878 289.413 366.677 288.614C367.476 287.815 368.494 287.271 369.602 287.051C370.71 286.831 371.858 286.944 372.902 287.376C373.946 287.808 374.838 288.541 375.465 289.48C376.093 290.419 376.428 291.524 376.428 292.653C376.428 294.168 375.826 295.621 374.755 296.692C373.684 297.763 372.231 298.365 370.716 298.365ZM370.716 289.754C370.151 289.754 369.599 289.922 369.129 290.236C368.66 290.55 368.293 290.996 368.077 291.518C367.861 292.039 367.805 292.614 367.915 293.168C368.025 293.722 368.297 294.231 368.696 294.63C369.096 295.029 369.605 295.301 370.159 295.412C370.713 295.522 371.287 295.465 371.809 295.249C372.331 295.033 372.777 294.667 373.091 294.197C373.404 293.727 373.572 293.175 373.572 292.61C373.572 291.853 373.271 291.127 372.735 290.591C372.2 290.055 371.473 289.754 370.716 289.754Z" fill="#262626"/>
<path d="M366.411 294.06C366.039 294.06 365.682 293.915 365.416 293.657C365.149 293.398 364.994 293.046 364.983 292.675C364.883 289.726 365.761 287.341 367.603 285.585C371.259 282.1 377.363 282.543 377.599 282.564C377.978 282.594 378.329 282.772 378.576 283.061C378.823 283.349 378.946 283.724 378.916 284.103C378.887 284.482 378.708 284.833 378.42 285.08C378.131 285.327 377.756 285.45 377.378 285.42C377.328 285.42 372.265 285.063 369.524 287.677C368.288 288.862 367.724 290.468 367.796 292.596C367.802 292.784 367.772 292.972 367.706 293.148C367.64 293.324 367.539 293.486 367.411 293.623C367.282 293.761 367.127 293.871 366.956 293.949C366.784 294.026 366.599 294.069 366.411 294.074V294.06Z" fill="#262626"/>
<path d="M310.626 272.604C312.491 272.604 314.003 271.092 314.003 269.227C314.003 267.362 312.491 265.85 310.626 265.85C308.761 265.85 307.249 267.362 307.249 269.227C307.249 271.092 308.761 272.604 310.626 272.604Z" fill="#262626"/>
<path d="M298.766 301.086C297.391 301.091 296.029 300.819 294.761 300.286C290.655 298.551 287.899 293.974 287.906 288.905C287.908 288.48 288.003 288.06 288.184 287.675C288.365 287.291 288.628 286.95 288.954 286.678C289.281 286.406 289.663 286.209 290.074 286.1C290.485 285.991 290.915 285.974 291.333 286.049L308.362 289.09C308.798 289.171 309.209 289.349 309.566 289.611C309.922 289.874 310.215 290.214 310.421 290.606C310.627 290.997 310.742 291.431 310.756 291.873C310.771 292.316 310.685 292.756 310.504 293.16C308.32 298.015 303.486 301.086 298.766 301.086ZM290.819 288.826C290.811 288.847 290.811 288.87 290.819 288.89C290.819 292.832 292.869 296.345 295.932 297.644C300.63 299.629 306.042 296.216 307.963 291.932L307.92 291.846L290.884 288.805L290.819 288.826Z" fill="#262626"/>
<path d="M319.201 324.919H345.383C345.615 324.921 345.84 325.002 346.019 325.149C346.198 325.297 346.321 325.501 346.368 325.728C346.415 325.956 346.382 326.192 346.276 326.398C346.169 326.604 345.995 326.768 345.783 326.861L319.201 338.214V324.919Z" fill="#262626"/>
<path d="M319.201 348.488C319.195 347.186 319.609 345.916 320.38 344.867C321.152 343.818 322.24 343.045 323.485 342.662C324.437 342.374 325.415 342.178 326.405 342.076C330.145 341.73 333.892 342.658 337.037 344.711C339.663 342.676 342.889 341.568 346.211 341.561C349.534 341.553 352.765 342.646 355.401 344.668C358.06 342.883 361.167 341.878 364.369 341.769C366.377 341.714 368.379 342.019 370.28 342.669C371.465 343.083 372.491 343.855 373.217 344.879C373.942 345.902 374.331 347.126 374.329 348.381V360.876H319.201V348.488Z" fill="#FFE18B"/>
<path d="M531.766 528.737L216.713 528.473L230.679 400.617C232.003 388.5 237.747 377.297 246.812 369.149C255.877 361 267.628 356.479 279.817 356.449L410.057 356.121C425.253 356.084 440.113 360.588 452.731 369.054C465.35 377.52 475.151 389.563 480.879 403.638C507.297 464.385 526.411 508.738 528.496 514C529.488 516.581 530.283 519.232 530.873 521.933C531.337 524.176 531.635 526.451 531.766 528.737Z" fill="#FFE18B"/>
<path d="M436.447 528.573H274.954V419.124H396.827C398.492 419.124 400.113 419.657 401.453 420.645C402.793 421.633 403.781 423.024 404.274 424.615L436.447 528.573Z" fill="#262626"/>
<path d="M396.805 420.552C396.465 420.557 396.134 420.44 395.873 420.223C395.611 420.006 395.435 419.702 395.377 419.367C394.978 417.003 385.788 361.454 404.959 354.778C405.317 354.653 405.71 354.676 406.052 354.84C406.393 355.005 406.655 355.299 406.78 355.657C406.905 356.015 406.883 356.407 406.718 356.749C406.553 357.09 406.26 357.352 405.902 357.477C391.857 362.361 395.577 403.466 398.198 418.881C398.229 419.067 398.224 419.256 398.183 419.439C398.141 419.623 398.063 419.796 397.955 419.949C397.846 420.102 397.708 420.233 397.549 420.332C397.389 420.432 397.212 420.5 397.027 420.531C396.954 420.544 396.88 420.551 396.805 420.552Z" fill="#262626"/>
<path d="M278.524 420.552C278.202 420.553 277.889 420.444 277.637 420.245C277.384 420.045 277.206 419.766 277.132 419.452C273.403 403.909 273.303 387.717 276.839 372.129C278.121 366.579 279.87 361.148 282.066 355.892C282.218 355.553 282.497 355.287 282.843 355.15C283.189 355.014 283.575 355.017 283.918 355.161C284.261 355.304 284.535 355.575 284.681 355.917C284.827 356.259 284.834 356.645 284.7 356.992C282.568 362.1 280.87 367.378 279.624 372.771C276.184 387.934 276.284 403.685 279.917 418.803C279.959 418.986 279.965 419.175 279.934 419.36C279.903 419.545 279.836 419.722 279.736 419.882C279.637 420.041 279.507 420.179 279.354 420.288C279.201 420.397 279.028 420.474 278.846 420.516C278.74 420.542 278.632 420.554 278.524 420.552Z" fill="#262626"/>
<path d="M258.111 331.259C256.626 329.34 254.923 327.6 253.034 326.076L252.956 326.004C249.425 322.87 246.357 319.249 243.845 315.251C241.618 311.681 240.275 308.026 238.09 302.399C236.998 299.6 236.227 297.401 235.798 296.173C230.708 281.551 227.366 268.442 222.197 266.557C221.418 266.292 220.61 266.127 219.791 266.064C218.7 265.962 217.599 266.079 216.555 266.409C215.51 266.739 214.542 267.274 213.707 267.985C213.154 268.457 212.673 269.008 212.279 269.62C210.28 272.797 211.273 277.402 213.322 286.477C213.65 287.905 213.943 289.083 214.136 289.869L218.284 308.89C218.284 308.89 208.088 311.196 208.659 319.278C208.659 319.278 199.235 313.695 195.579 324.662C195.579 324.662 183.655 325.626 187.118 338.706C187.118 338.706 191.923 356.214 199.042 356.792C199.042 356.792 197.699 384.11 220.398 396.062L257.526 391.392L259.967 380.811C266.393 352.965 263.495 343.933 262.416 340.591C261.374 337.314 259.928 334.179 258.111 331.259Z" fill="white"/>
<path d="M225.21 380.575C224.985 380.576 224.762 380.523 224.561 380.421C224.36 380.32 224.186 380.172 224.053 379.99C219.767 374.17 217.105 367.314 216.342 360.126C214.721 343.704 224.103 331.566 227.945 327.389L224.967 319.707C224.674 318.928 224.296 317.936 223.875 316.951C221.511 311.46 220.448 306.848 220.719 303.235C220.796 302.144 221.093 301.079 221.592 300.106C222.092 299.133 222.783 298.271 223.625 297.573C224.449 296.885 225.405 296.372 226.433 296.066C227.462 295.759 228.542 295.664 229.608 295.788C236.077 296.502 239.947 303.899 240.111 304.206C240.197 304.373 240.25 304.555 240.266 304.742C240.282 304.929 240.26 305.118 240.203 305.297C240.146 305.476 240.055 305.642 239.933 305.785C239.812 305.929 239.664 306.047 239.497 306.134C239.33 306.22 239.148 306.272 238.961 306.288C238.774 306.304 238.585 306.283 238.406 306.226C238.227 306.169 238.061 306.077 237.917 305.956C237.774 305.835 237.656 305.686 237.569 305.52C237.569 305.455 234.235 299.172 229.294 298.629C228.609 298.549 227.914 298.609 227.252 298.805C226.591 299.002 225.976 299.331 225.446 299.772C224.9 300.226 224.452 300.786 224.129 301.418C223.806 302.05 223.615 302.741 223.568 303.449C223.332 306.598 224.317 310.76 226.495 315.823C226.945 316.858 227.338 317.9 227.638 318.679L231.265 328.032L230.629 328.689C227.538 331.895 217.584 343.611 219.205 359.834C219.909 366.51 222.373 372.879 226.345 378.29C226.568 378.596 226.661 378.976 226.603 379.35C226.546 379.723 226.342 380.059 226.038 380.282C225.8 380.465 225.51 380.567 225.21 380.575Z" fill="#262626"/>
<path d="M306.092 521.597C296.423 520.96 286.719 522.113 277.468 524.996C243.046 535.842 227.773 567.629 224.532 574.826L306.092 575.247V521.597Z" fill="white"/>
<path d="M307.52 576.683L222.325 576.24L223.225 574.241C228.551 562.445 244.445 533.907 277.039 523.632C286.456 520.696 296.334 519.522 306.177 520.169L307.52 520.255V576.683ZM226.766 573.412L304.664 573.812V522.947C295.609 522.506 286.547 523.669 277.896 526.381C248.115 535.742 232.714 561.01 226.766 573.412Z" fill="#262626"/>
<path d="M212.436 360.733C211.042 360.747 209.663 360.444 208.402 359.848C206.833 359.079 205.502 357.896 204.554 356.428C204.064 357.025 203.454 357.512 202.762 357.856C201.449 358.478 199.947 358.567 198.571 358.106C198.394 358.041 198.232 357.943 198.094 357.816C197.956 357.69 197.844 357.537 197.765 357.367C197.685 357.197 197.64 357.013 197.632 356.825C197.624 356.638 197.653 356.451 197.717 356.274C197.782 356.098 197.88 355.936 198.007 355.798C198.133 355.66 198.286 355.548 198.456 355.468C198.626 355.389 198.81 355.344 198.998 355.336C199.185 355.328 199.372 355.357 199.549 355.421C200.2 355.617 200.901 355.569 201.519 355.285C201.951 355.008 202.323 354.647 202.613 354.224C202.904 353.801 203.107 353.325 203.212 352.822L204.64 348.174L205.975 352.844C205.975 352.844 206.924 355.964 209.68 357.263C211.637 358.191 214.121 358.027 217.063 356.785C217.237 356.703 217.426 356.657 217.618 356.65C217.81 356.643 218.001 356.674 218.181 356.743C218.36 356.812 218.524 356.916 218.662 357.049C218.801 357.183 218.911 357.343 218.986 357.52C219.061 357.697 219.099 357.887 219.099 358.079C219.099 358.271 219.06 358.461 218.984 358.638C218.909 358.815 218.798 358.974 218.66 359.107C218.521 359.241 218.357 359.344 218.177 359.412C216.371 360.232 214.419 360.681 212.436 360.733Z" fill="#262626"/>
<path d="M204.575 354.678C204.272 354.677 203.978 354.58 203.734 354.4C203.49 354.22 203.31 353.968 203.219 353.679L194.208 325.076C194.094 324.714 194.129 324.322 194.305 323.986C194.48 323.65 194.782 323.397 195.143 323.284C195.505 323.17 195.897 323.205 196.233 323.38C196.569 323.556 196.822 323.857 196.936 324.219L205.911 352.822C205.967 353.001 205.988 353.19 205.971 353.377C205.955 353.564 205.901 353.746 205.815 353.912C205.728 354.079 205.609 354.226 205.465 354.347C205.321 354.467 205.154 354.558 204.975 354.614C204.846 354.654 204.711 354.676 204.575 354.678Z" fill="#262626"/>
<path d="M218.712 348.759C218.418 348.759 218.131 348.667 217.891 348.497C217.651 348.327 217.469 348.087 217.37 347.81L207.338 319.742C207.275 319.566 207.247 319.378 207.256 319.191C207.266 319.003 207.312 318.819 207.392 318.65C207.472 318.48 207.585 318.328 207.724 318.202C207.863 318.075 208.026 317.978 208.202 317.915C208.379 317.851 208.567 317.823 208.754 317.833C208.942 317.842 209.125 317.888 209.295 317.968C209.465 318.048 209.617 318.161 209.743 318.3C209.869 318.439 209.967 318.602 210.03 318.779L220.026 346.853C220.103 347.069 220.127 347.3 220.095 347.527C220.064 347.754 219.979 347.97 219.846 348.156C219.714 348.343 219.539 348.496 219.335 348.601C219.132 348.706 218.906 348.76 218.677 348.759H218.712Z" fill="#262626"/>
<path d="M592.584 190.88H499.157C485.608 190.88 474.624 201.862 474.624 215.409C474.624 228.956 485.608 239.939 499.157 239.939H592.584C606.134 239.939 617.117 228.956 617.117 215.409C617.117 201.862 606.134 190.88 592.584 190.88Z" fill="white"/>
<path d="M592.62 241.374H499.15C492.265 241.374 485.662 238.639 480.793 233.77C475.924 228.901 473.189 222.298 473.189 215.413C473.189 208.528 475.924 201.924 480.793 197.056C485.662 192.187 492.265 189.452 499.15 189.452H592.62C599.505 189.452 606.109 192.187 610.977 197.056C615.846 201.924 618.581 208.528 618.581 215.413C618.581 222.298 615.846 228.901 610.977 233.77C606.109 238.639 599.505 241.374 592.62 241.374ZM499.15 192.308C493.022 192.308 487.146 194.742 482.813 199.075C478.479 203.408 476.045 209.285 476.045 215.413C476.045 221.541 478.479 227.418 482.813 231.751C487.146 236.084 493.022 238.518 499.15 238.518H592.62C598.748 238.518 604.625 236.084 608.958 231.751C613.291 227.418 615.725 221.541 615.725 215.413C615.725 209.285 613.291 203.408 608.958 199.075C604.625 194.742 598.748 192.308 592.62 192.308H499.15Z" fill="#262626"/>
<path d="M507.047 223.402C511.46 223.402 515.037 219.825 515.037 215.413C515.037 211 511.46 207.423 507.047 207.423C502.634 207.423 499.057 211 499.057 215.413C499.057 219.825 502.634 223.402 507.047 223.402Z" fill="#F9B800"/>
<path d="M545.867 223.402C550.28 223.402 553.857 219.825 553.857 215.413C553.857 211 550.28 207.423 545.867 207.423C541.455 207.423 537.878 211 537.878 215.413C537.878 219.825 541.455 223.402 545.867 223.402Z" fill="#F9B800"/>
<path d="M584.687 223.402C589.1 223.402 592.677 219.825 592.677 215.413C592.677 211 589.1 207.423 584.687 207.423C580.275 207.423 576.698 211 576.698 215.413C576.698 219.825 580.275 223.402 584.687 223.402Z" fill="#F9B800"/>
<path d="M125.843 325.362H80.4678C71.1774 325.362 63.646 332.893 63.646 342.183V387.558C63.646 396.849 71.1774 404.38 80.4678 404.38H125.843C135.133 404.38 142.664 396.849 142.664 387.558V342.183C142.664 332.893 135.133 325.362 125.843 325.362Z" fill="white"/>
<path d="M125.835 405.808H80.4679C75.6288 405.8 70.9902 403.874 67.5691 400.452C64.148 397.029 62.2237 392.39 62.218 387.551V342.169C62.2237 337.33 64.148 332.691 67.5691 329.268C70.9902 325.846 75.6288 323.92 80.4679 323.912H125.835C130.676 323.918 135.316 325.843 138.739 329.266C142.161 332.688 144.087 337.329 144.092 342.169V387.53C144.092 392.374 142.17 397.02 138.746 400.447C135.323 403.874 130.679 405.802 125.835 405.808ZM80.4679 326.79C76.3888 326.793 72.4777 328.415 69.592 331.298C66.7063 334.181 65.0816 338.09 65.074 342.169V387.53C65.0778 391.612 66.7006 395.526 69.5865 398.413C72.4724 401.3 76.3857 402.925 80.4679 402.931H125.835C129.918 402.925 133.832 401.301 136.719 398.413C139.606 395.526 141.231 391.613 141.236 387.53V342.169C141.233 338.086 139.609 334.171 136.721 331.283C133.834 328.396 129.919 326.772 125.835 326.768L80.4679 326.79Z" fill="#262626"/>
<path d="M125.193 351.958C124.32 350.355 123.017 349.027 121.43 348.124C114.14 344.047 106.779 346.575 103.173 351.872C99.5174 346.51 92.0132 343.976 84.609 348.302C83.2656 349.084 82.1428 350.195 81.3461 351.53C77.9974 357.156 78.6543 362.804 81.4674 366.824C81.5182 366.896 81.573 366.965 81.6317 367.031V367.066C81.6888 367.145 85.2731 371.3 87.515 373.571C91.7949 377.74 96.2821 381.691 100.96 385.409C101.565 385.902 102.321 386.171 103.102 386.171C103.882 386.171 104.639 385.902 105.244 385.409C109.278 382.189 112.555 379.397 114.99 377.262C116.85 375.714 118.605 374.044 120.245 372.264C123.743 368.402 131.447 363.339 125.193 351.958Z" fill="#D3B970"/>
<path d="M641.765 295.688H502.499C489.241 295.688 478.494 306.435 478.494 319.692V472.153C478.494 485.41 489.241 496.158 502.499 496.158H641.765C655.022 496.158 665.769 485.41 665.769 472.153V319.692C665.769 306.435 655.022 295.688 641.765 295.688Z" fill="white"/>
<path d="M641.765 497.586H502.499C495.756 497.578 489.292 494.896 484.524 490.128C479.756 485.36 477.074 478.896 477.066 472.153V319.692C477.074 312.95 479.756 306.485 484.524 301.717C489.292 296.949 495.756 294.267 502.499 294.26H641.765C648.507 294.267 654.972 296.949 659.74 301.717C664.508 306.485 667.19 312.95 667.197 319.692V472.153C667.19 478.896 664.508 485.36 659.74 490.128C654.972 494.896 648.507 497.578 641.765 497.586ZM502.499 297.116C496.513 297.123 490.775 299.504 486.543 303.737C482.311 307.969 479.93 313.707 479.922 319.692V472.153C479.93 478.138 482.311 483.876 486.543 488.109C490.775 492.341 496.513 494.722 502.499 494.73H641.765C647.75 494.722 653.488 492.341 657.72 488.109C661.953 483.876 664.334 478.138 664.341 472.153V319.692C664.336 313.706 661.955 307.967 657.722 303.735C653.49 299.502 647.751 297.121 641.765 297.116H502.499Z" fill="#262626"/>
<path d="M525.283 371.079H506.654C501.248 371.079 496.865 375.462 496.865 380.868V399.496C496.865 404.903 501.248 409.285 506.654 409.285H525.283C530.689 409.285 535.072 404.903 535.072 399.496V380.868C535.072 375.462 530.689 371.079 525.283 371.079Z" fill="#FFF1C9"/>
<path d="M525.283 429.077H506.654C501.248 429.077 496.865 433.46 496.865 438.866V457.494C496.865 462.901 501.248 467.283 506.654 467.283H525.283C530.689 467.283 535.072 462.901 535.072 457.494V438.866C535.072 433.46 530.689 429.077 525.283 429.077Z" fill="#FFF1C9"/>
<path d="M644.892 380.889H558.655C558.276 380.889 557.913 380.739 557.645 380.471C557.378 380.203 557.227 379.84 557.227 379.461C557.227 379.083 557.378 378.72 557.645 378.452C557.913 378.184 558.276 378.033 558.655 378.033H644.892C645.271 378.033 645.634 378.184 645.902 378.452C646.17 378.72 646.32 379.083 646.32 379.461C646.32 379.84 646.17 380.203 645.902 380.471C645.634 380.739 645.271 380.889 644.892 380.889Z" fill="#262626"/>
<path d="M611.812 401.917H558.655C558.276 401.917 557.913 401.766 557.645 401.499C557.378 401.231 557.227 400.868 557.227 400.489C557.227 400.11 557.378 399.747 557.645 399.479C557.913 399.211 558.276 399.061 558.655 399.061H611.812C612.191 399.061 612.554 399.211 612.822 399.479C613.09 399.747 613.24 400.11 613.24 400.489C613.24 400.868 613.09 401.231 612.822 401.499C612.554 401.766 612.191 401.917 611.812 401.917Z" fill="#262626"/>
<path d="M644.892 439.095H558.655C558.276 439.095 557.913 438.944 557.645 438.676C557.378 438.409 557.227 438.045 557.227 437.667C557.227 437.288 557.378 436.925 557.645 436.657C557.913 436.389 558.276 436.239 558.655 436.239H644.892C645.271 436.239 645.634 436.389 645.902 436.657C646.17 436.925 646.32 437.288 646.32 437.667C646.32 438.045 646.17 438.409 645.902 438.676C645.634 438.944 645.271 439.095 644.892 439.095Z" fill="#262626"/>
<path d="M611.812 460.122H558.655C558.276 460.122 557.913 459.972 557.645 459.704C557.378 459.436 557.227 459.073 557.227 458.694C557.227 458.315 557.378 457.952 557.645 457.684C557.913 457.417 558.276 457.266 558.655 457.266H611.812C612.191 457.266 612.554 457.417 612.822 457.684C613.09 457.952 613.24 458.315 613.24 458.694C613.24 459.073 613.09 459.436 612.822 459.704C612.554 459.972 612.191 460.122 611.812 460.122Z" fill="#262626"/>
<path d="M530.937 322.556C530.342 321.457 529.449 320.549 528.36 319.935C523.362 317.136 518.321 318.871 515.851 322.506C513.345 318.829 508.204 317.094 503.141 320.042C502.224 320.583 501.457 321.347 500.914 322.263C498.615 326.111 499.065 329.981 500.992 332.737C501.026 332.788 501.065 332.836 501.107 332.88C501.149 332.937 503.606 335.786 505.141 337.343C506.454 338.663 509.696 341.691 514.351 345.446C514.765 345.78 515.28 345.961 515.811 345.961C516.343 345.961 516.858 345.78 517.272 345.446C520.035 343.233 522.27 341.32 523.947 339.863C525.209 338.802 526.401 337.662 527.517 336.45C529.945 333.83 535.229 330.36 530.937 322.556Z" fill="#D3B970"/>
<path d="M470.655 589.849H316.002C313.642 589.85 311.306 589.386 309.125 588.483C306.945 587.581 304.964 586.258 303.295 584.59C301.626 582.921 300.302 580.941 299.399 578.761C298.496 576.581 298.031 574.244 298.031 571.884V542.232C298.033 531.653 302.236 521.507 309.717 514.027C317.197 506.546 327.343 502.343 337.922 502.341H505.369C512.376 502.341 519.095 505.124 524.05 510.078C529.004 515.033 531.787 521.752 531.787 528.759C531.784 536.784 530.201 544.73 527.127 552.143C524.053 559.557 519.55 566.292 513.873 571.965C508.196 577.637 501.458 582.137 494.042 585.205C486.627 588.274 478.68 589.851 470.655 589.849Z" fill="#FFE18B"/>
<path d="M231.5 592.683C225.098 592.55 218.784 591.158 212.92 588.585C207.056 586.012 201.756 582.309 197.323 577.688C192.89 573.067 189.411 567.618 187.084 561.652C184.757 555.686 183.629 549.32 183.762 542.917L186.425 414.79C186.581 407.432 189.652 400.437 194.963 395.342C200.275 390.248 207.392 387.471 214.75 387.622L256.769 388.501C264.121 388.66 271.109 391.732 276.197 397.042C281.285 402.352 284.056 409.465 283.901 416.818L281.266 544.945C281.133 551.347 279.741 557.661 277.168 563.525C274.595 569.389 270.892 574.689 266.271 579.122C261.65 583.555 256.2 587.034 250.234 589.361C244.268 591.688 237.903 592.817 231.5 592.683Z" fill="#FFE18B"/>
<path d="M460.173 502.334H421.403C421.024 502.334 420.661 502.183 420.393 501.916C420.125 501.648 419.975 501.285 419.975 500.906C419.975 500.527 420.125 500.164 420.393 499.896C420.661 499.628 421.024 499.478 421.403 499.478H460.173C460.552 499.478 460.915 499.628 461.183 499.896C461.451 500.164 461.601 500.527 461.601 500.906C461.601 501.285 461.451 501.648 461.183 501.916C460.915 502.183 460.552 502.334 460.173 502.334Z" fill="#262626"/>
<path d="M415.405 294.738C413.353 294.738 411.347 294.13 409.64 292.99C407.933 291.85 406.602 290.23 405.816 288.334C405.03 286.439 404.823 284.352 405.222 282.339C405.62 280.326 406.607 278.476 408.057 277.023C409.507 275.571 411.354 274.58 413.367 274.177C415.379 273.774 417.466 273.977 419.363 274.759C421.261 275.542 422.883 276.869 424.027 278.573C425.17 280.278 425.783 282.283 425.787 284.335C425.789 285.7 425.522 287.052 425.001 288.314C424.48 289.575 423.716 290.722 422.752 291.688C421.787 292.654 420.642 293.421 419.382 293.944C418.121 294.467 416.77 294.737 415.405 294.738ZM415.405 276.831C413.916 276.831 412.46 277.273 411.222 278.101C409.984 278.929 409.019 280.105 408.45 281.482C407.882 282.858 407.734 284.372 408.026 285.833C408.318 287.293 409.037 288.634 410.091 289.686C411.146 290.737 412.489 291.452 413.95 291.74C415.411 292.028 416.925 291.876 418.3 291.303C419.675 290.73 420.849 289.762 421.673 288.522C422.497 287.282 422.935 285.825 422.931 284.335C422.923 282.344 422.127 280.436 420.717 279.03C419.307 277.624 417.397 276.833 415.405 276.831Z" fill="#262626"/>
<path d="M284.101 420.552C283.722 420.552 283.359 420.402 283.091 420.134C282.823 419.866 282.673 419.503 282.673 419.124C282.487 390.628 259.182 390.007 258.204 390.007C257.825 390.007 257.462 389.857 257.194 389.589C256.926 389.321 256.776 388.958 256.776 388.579C256.776 388.2 256.926 387.837 257.194 387.569C257.462 387.302 257.825 387.151 258.204 387.151C258.475 387.151 285.293 387.772 285.5 419.131C285.5 419.51 285.35 419.873 285.082 420.141C284.814 420.409 284.451 420.559 284.072 420.559L284.101 420.552Z" fill="#262626"/>
<path d="M367.581 357.963H323.313C322.935 357.963 322.572 357.812 322.304 357.545C322.036 357.277 321.885 356.914 321.885 356.535C321.885 356.156 322.036 355.793 322.304 355.525C322.572 355.257 322.935 355.107 323.313 355.107H367.581C367.96 355.107 368.323 355.257 368.591 355.525C368.859 355.793 369.009 356.156 369.009 356.535C369.009 356.914 368.859 357.277 368.591 357.545C368.323 357.812 367.96 357.963 367.581 357.963Z" fill="#262626"/>
<path d="M325.627 584.301C325.248 584.301 324.885 584.151 324.617 583.883C324.349 583.615 324.199 583.252 324.199 582.873V518.099C324.199 517.72 324.349 517.357 324.617 517.089C324.885 516.821 325.248 516.671 325.627 516.671C326.006 516.671 326.369 516.821 326.637 517.089C326.904 517.357 327.055 517.72 327.055 518.099V582.873C327.055 583.252 326.904 583.615 326.637 583.883C326.369 584.151 326.006 584.301 325.627 584.301Z" fill="#262626"/>
<path d="M266.786 414.483H202.019C201.64 414.483 201.277 414.333 201.009 414.065C200.742 413.797 200.591 413.434 200.591 413.055C200.591 412.676 200.742 412.313 201.009 412.045C201.277 411.778 201.64 411.627 202.019 411.627H266.786C267.165 411.627 267.528 411.778 267.796 412.045C268.064 412.313 268.214 412.676 268.214 413.055C268.214 413.434 268.064 413.797 267.796 414.065C267.528 414.333 267.165 414.483 266.786 414.483Z" fill="#262626"/>
<path d="M111.255 511.309C110.963 511.309 110.677 511.22 110.437 511.052C110.197 510.885 110.014 510.648 109.913 510.373C101.631 487.782 84.509 469.44 84.3376 469.261C84.0773 468.986 83.937 468.618 83.9477 468.239C83.9584 467.86 84.1192 467.501 84.3948 467.241C84.6703 466.98 85.038 466.84 85.4169 466.851C85.7958 466.861 86.155 467.022 86.4154 467.298C86.5867 467.483 104.108 486.233 112.598 509.424C112.727 509.779 112.71 510.171 112.55 510.513C112.391 510.856 112.103 511.121 111.748 511.252C111.589 511.301 111.422 511.321 111.255 511.309Z" fill="#262626"/>
<path d="M119.338 513.636C118.959 513.636 118.596 513.486 118.328 513.218C118.06 512.95 117.91 512.587 117.91 512.208V492.652C117.91 492.273 118.06 491.91 118.328 491.642C118.596 491.374 118.959 491.224 119.338 491.224C119.717 491.224 120.08 491.374 120.348 491.642C120.615 491.91 120.766 492.273 120.766 492.652V512.208C120.766 512.587 120.615 512.95 120.348 513.218C120.08 513.486 119.717 513.636 119.338 513.636Z" fill="#262626"/>
<path d="M161.414 541.618C161.412 536.943 159.554 532.46 156.249 529.155C152.943 525.849 148.46 523.991 143.785 523.989H139.858V510.673H91.2634V523.997H87.3364C82.661 523.997 78.1771 525.854 74.8711 529.16C71.5651 532.466 69.7078 536.95 69.7078 541.625C69.7134 546.296 71.5735 550.774 74.8791 554.074C78.1847 557.374 82.6654 559.227 87.3364 559.225C85.0217 559.224 82.7295 559.68 80.5908 560.565C78.452 561.45 76.5086 562.748 74.8715 564.384C73.2344 566.02 71.9358 567.963 71.0498 570.102C70.1638 572.24 69.7078 574.532 69.7078 576.847C69.7068 579.162 70.1622 581.455 71.0478 583.594C71.9333 585.733 73.2318 587.677 74.869 589.314C76.5062 590.951 78.4499 592.25 80.5891 593.136C82.7284 594.021 85.0211 594.476 87.3364 594.476H143.785C148.461 594.476 152.945 592.618 156.251 589.312C159.557 586.006 161.414 581.522 161.414 576.847C161.412 572.173 159.554 567.691 156.248 564.386C152.942 561.082 148.459 559.225 143.785 559.225C148.457 559.225 152.938 557.371 156.243 554.07C159.548 550.768 161.408 546.29 161.414 541.618Z" fill="#F9B800"/>
<path d="M144.528 560.753H124.614C124.236 560.753 123.872 560.603 123.605 560.335C123.337 560.067 123.186 559.704 123.186 559.325C123.186 558.946 123.337 558.583 123.605 558.315C123.872 558.048 124.236 557.897 124.614 557.897H144.528C144.907 557.897 145.27 558.048 145.538 558.315C145.805 558.583 145.956 558.946 145.956 559.325C145.956 559.704 145.805 560.067 145.538 560.335C145.27 560.603 144.907 560.753 144.528 560.753Z" fill="#262626"/>
<path d="M96.7042 560.653H86.2798C85.9011 560.653 85.5379 560.503 85.2701 560.235C85.0023 559.967 84.8518 559.604 84.8518 559.225C84.8518 558.846 85.0023 558.483 85.2701 558.215C85.5379 557.948 85.9011 557.797 86.2798 557.797H96.7042C97.0829 557.797 97.4462 557.948 97.714 558.215C97.9818 558.483 98.1322 558.846 98.1322 559.225C98.1322 559.604 97.9818 559.967 97.714 560.235C97.4462 560.503 97.0829 560.653 96.7042 560.653Z" fill="#262626"/>
<path d="M115.568 514.814C129.232 514.814 140.308 512.506 140.308 509.659C140.308 506.812 129.232 504.504 115.568 504.504C101.904 504.504 90.8279 506.812 90.8279 509.659C90.8279 512.506 101.904 514.814 115.568 514.814Z" fill="#262626"/>
<path d="M119.338 492.652C125.785 492.652 131.012 487.425 131.012 480.978C131.012 474.531 125.785 469.304 119.338 469.304C112.891 469.304 107.664 474.531 107.664 480.978C107.664 487.425 112.891 492.652 119.338 492.652Z" fill="#FFBB45"/>
<path d="M81.1747 476.016C88.0834 476.016 93.684 470.415 93.684 463.506C93.684 456.598 88.0834 450.997 81.1747 450.997C74.266 450.997 68.6654 456.598 68.6654 463.506C68.6654 470.415 74.266 476.016 81.1747 476.016Z" fill="#FFBB45"/>
<path d="M231.772 284.007C230.344 280.108 228.28 275.103 225.381 270.919C222.925 267.349 220.119 265.85 217.035 266.385C216.143 266.492 215.285 266.794 214.524 267.27C213.762 267.747 213.115 268.386 212.629 269.141C210.195 273.047 211.815 279.937 212.629 282.707L212.736 283.064L210.016 283.928L209.887 283.507C208.752 279.594 207.274 272.333 210.209 267.628C210.904 266.528 211.832 265.594 212.928 264.892C214.023 264.19 215.26 263.737 216.549 263.565C220.769 262.851 224.639 264.807 227.737 269.277C230.836 273.747 232.943 278.944 234.456 282.993L231.772 284.007Z" fill="#262626"/>
</svg>
